<svg width="52" height="52" viewBox="0 0 52 52" fill="none" xmlns="http://www.w3.org/2000/svg">
<path d="M18.7351 40.7767C18.3235 40.7767 17.9118 40.625 17.5868 40.3L4.43512 27.1483C3.80678 26.52 3.80678 25.48 4.43512 24.8517L17.5868 11.7C18.2151 11.0717 19.2551 11.0717 19.8835 11.7C20.5118 12.3283 20.5118 13.3683 19.8835 13.9967L7.88012 26L19.8835 38.0033C20.5118 38.6317 20.5118 39.6717 19.8835 40.3C19.5801 40.625 19.1468 40.7767 18.7351 40.7767Z" fill="#292D32"/>
<path d="M42.4167 27.625H5.95166C5.06333 27.625 4.32666 26.8883 4.32666 26C4.32666 25.1117 5.06333 24.375 5.95166 24.375H42.4167C43.305 24.375 44.0417 25.1117 44.0417 26C44.0417 26.8883 43.305 27.625 42.4167 27.625Z" fill="#292D32"/>
</svg>
