<svg width="40" height="41" viewBox="0 0 40 41" fill="none" xmlns="http://www.w3.org/2000/svg">
<path d="M17.0466 28.3848C16.3743 28.3848 15.8168 27.8273 15.8168 27.155C15.8168 24.4167 15.8168 21.0061 21.9657 21.0061H28.5245C32.2139 21.0061 32.2139 20.5142 32.2139 17.3168V14.0373C32.2139 10.8399 32.2139 10.348 28.5245 10.348H26.8848C26.2125 10.348 25.655 9.79049 25.655 9.11821C25.655 8.44593 26.2125 7.88843 26.8848 7.88843H28.5245C34.2635 7.88843 34.6734 10.2168 34.6734 14.0373V17.3168C34.6734 21.1373 34.2635 23.4657 28.5245 23.4657H21.9657C18.2764 23.4657 18.2764 24.4659 18.2764 27.155C18.2764 27.8273 17.7188 28.3848 17.0466 28.3848Z" fill="#29323B"/>
<path d="M20.326 15.2671H13.7672C13.2424 15.2671 12.7669 14.9227 12.603 14.4308C11.4716 11.0038 11.4716 7.23248 12.603 3.82189C12.7669 3.31358 13.2424 2.96924 13.7672 2.96924H20.326C20.8507 2.96924 21.3262 3.31358 21.4902 3.80549C22.638 7.23248 22.638 11.0038 21.4902 14.4144C21.3262 14.9227 20.8671 15.2671 20.326 15.2671ZM14.6854 12.8075H19.4241C20.0636 10.3971 20.0636 7.83917 19.4241 5.4288H14.6854C14.0459 7.83917 14.0459 10.3971 14.6854 12.8075Z" fill="#29323B"/>
<path d="M13.7672 15.2671H12.1275C8.15936 15.2671 5.97855 13.0862 5.97855 9.11814C5.97855 5.15005 8.15936 2.96924 12.1275 2.96924H13.7672C14.1935 2.96924 14.587 3.1824 14.8166 3.55953C15.0461 3.92027 15.0625 4.37939 14.8658 4.75652C13.39 7.6916 13.39 10.5611 14.8658 13.4962C15.0625 13.8733 15.0297 14.3324 14.8166 14.6932C14.587 15.0539 14.1935 15.2671 13.7672 15.2671ZM11.9307 5.4288C9.48752 5.49439 8.43811 6.59299 8.43811 9.11814C8.43811 11.6269 9.48752 12.7419 11.9143 12.8075C11.0944 10.3479 11.0944 7.88836 11.9307 5.4288Z" fill="#29323B"/>
<path d="M21.9657 15.2671H20.326C19.8997 15.2671 19.5061 15.0539 19.2766 14.6768C19.047 14.316 19.0306 13.8569 19.2274 13.4798C20.6867 10.5447 20.6867 7.6752 19.2274 4.74012C19.0306 4.36299 19.0634 3.90387 19.2766 3.54314C19.5061 3.1824 19.8997 2.96924 20.326 2.96924H21.9657C25.9338 2.96924 28.1146 5.15005 28.1146 9.11814C28.1146 13.0862 25.9338 15.2671 21.9657 15.2671ZM22.1625 5.4288C22.9823 7.88836 22.9823 10.3479 22.1625 12.8075C24.6056 12.7419 25.6386 11.6433 25.6386 9.11814C25.655 6.59299 24.6056 5.49439 22.1625 5.4288Z" fill="#29323B"/>
<path d="M17.8663 38.2231H16.2266C14.5377 38.2231 12.5373 37.5836 12.5373 34.5338V29.6146C12.5373 26.5648 14.5377 25.9253 16.2266 25.9253H17.8663C19.5552 25.9253 21.5557 26.5648 21.5557 29.6146V34.5338C21.5557 37.5836 19.5552 38.2231 17.8663 38.2231ZM16.2266 28.3849C14.9968 28.3849 14.9968 28.7456 14.9968 29.6146V34.5338C14.9968 35.4028 14.9968 35.7635 16.2266 35.7635H17.8663C19.0961 35.7635 19.0961 35.4028 19.0961 34.5338V29.6146C19.0961 28.7456 19.0961 28.3849 17.8663 28.3849H16.2266Z" fill="#29323B"/>
</svg>
