<svg width="35" height="35" viewBox="0 0 35 35" fill="none" xmlns="http://www.w3.org/2000/svg">
<path d="M17.5 34.9999C7.84651 34.9999 0 27.1534 0 17.4999C0 7.84639 7.84651 -0.00012207 17.5 -0.00012207C27.1535 -0.00012207 35 7.84639 35 17.4999C35 27.1534 27.1535 34.9999 17.5 34.9999ZM17.5 2.44174C9.19767 2.44174 2.44186 9.19755 2.44186 17.4999C2.44186 25.8022 9.19767 32.558 17.5 32.558C25.8023 32.558 32.5581 25.8022 32.5581 17.4999C32.5581 9.19755 25.8023 2.44174 17.5 2.44174Z" fill="#292D32"/>
<path d="M12.57 23.4999C12.2981 23.4999 12.0261 23.3997 11.8113 23.1849C11.3962 22.7698 11.3962 22.0827 11.8113 21.6676L16.1058 17.3731L11.8113 13.0786C11.3962 12.6635 11.3962 11.9764 11.8113 11.5612C12.2265 11.1461 12.9136 11.1461 13.3287 11.5612L18.3819 16.6144C18.797 17.0295 18.797 17.7166 18.3819 18.1318L13.3287 23.1849C13.114 23.3997 12.842 23.4999 12.57 23.4999Z" fill="#292D32"/>
<path d="M23.3499 23.4999C23.6219 23.4999 23.8938 23.3997 24.1086 23.1849C24.5237 22.7698 24.5237 22.0827 24.1086 21.6676L19.8141 17.3731L24.1086 13.0786C24.5237 12.6635 24.5237 11.9764 24.1086 11.5612C23.6934 11.1461 23.0063 11.1461 22.5912 11.5612L17.538 16.6144C17.1229 17.0295 17.1229 17.7166 17.538 18.1318L22.5912 23.1849C22.8059 23.3997 23.0779 23.4999 23.3499 23.4999Z" fill="#292D32"/>
</svg>
