<svg width="54" height="54" viewBox="0 0 54 54" fill="none" xmlns="http://www.w3.org/2000/svg">
<path d="M34.3568 49.301H20.0632C9.2991 49.301 4.69531 44.6972 4.69531 33.9331V33.6481C4.69531 23.9144 8.5318 19.2229 17.1255 18.4118C18.0024 18.346 18.8355 19.0037 18.9232 19.9025C19.0109 20.8013 18.3532 21.6125 17.4324 21.7002C10.5487 22.3359 7.98373 25.5805 7.98373 33.67V33.955C7.98373 42.8776 11.1406 46.0345 20.0632 46.0345H34.3568C43.2794 46.0345 46.4363 42.8776 46.4363 33.955V33.67C46.4363 25.5367 43.8275 22.2921 36.8122 21.7002C35.9133 21.6125 35.2337 20.8233 35.3214 19.9244C35.4091 19.0256 36.1764 18.346 37.0972 18.4337C45.8224 19.1791 49.7247 23.8925 49.7247 33.6919V33.9769C49.7247 44.6972 45.1209 49.301 34.3568 49.301Z" fill="#29323B"/>
<path d="M27.2099 34.7879C26.311 34.7879 25.5657 34.0425 25.5657 33.1437V4.90715C25.5657 4.00831 26.311 3.26294 27.2099 3.26294C28.1087 3.26294 28.8541 4.00831 28.8541 4.90715V33.1437C28.8541 34.0644 28.1087 34.7879 27.2099 34.7879Z" fill="#29323B"/>
<path d="M27.2099 37.2433C26.7934 37.2433 26.3768 37.0898 26.048 36.761L18.7039 29.4168C18.0681 28.7811 18.0681 27.7288 18.7039 27.093C19.3396 26.4573 20.3919 26.4573 21.0277 27.093L27.2099 33.2753L33.3921 27.093C34.0279 26.4573 35.0802 26.4573 35.7159 27.093C36.3517 27.7288 36.3517 28.7811 35.7159 29.4168L28.3718 36.761C28.043 37.0898 27.6264 37.2433 27.2099 37.2433Z" fill="#29323B"/>
</svg>
