<svg width="32" height="32" viewBox="0 0 32 32" fill="none" xmlns="http://www.w3.org/2000/svg">
<path d="M15.5329 28.0243C15.1317 28.0243 14.7433 27.9725 14.4197 27.856C9.47505 26.1603 1.61792 20.1413 1.61792 11.2486C1.61792 6.71815 5.28113 3.04199 9.78571 3.04199C11.9733 3.04199 14.0185 3.89631 15.5329 5.42373C17.0474 3.89631 19.0926 3.04199 21.2802 3.04199C25.7848 3.04199 29.448 6.73109 29.448 11.2486C29.448 20.1542 21.5908 26.1603 16.6461 27.856C16.3225 27.9725 15.9342 28.0243 15.5329 28.0243ZM9.78571 4.98362C6.3555 4.98362 3.55955 7.79251 3.55955 11.2486C3.55955 20.0895 12.0639 25.0083 15.054 26.0309C15.287 26.1086 15.7918 26.1086 16.0248 26.0309C19.002 25.0083 27.5193 20.1025 27.5193 11.2486C27.5193 7.79251 24.7233 4.98362 21.2931 4.98362C19.3256 4.98362 17.5005 5.90266 16.3225 7.4948C15.9601 7.98668 15.1317 7.98668 14.7692 7.4948C13.5654 5.88972 11.7532 4.98362 9.78571 4.98362Z" fill="white"/>
</svg>
