<svg width="45" height="45" viewBox="0 0 45 45" fill="none" xmlns="http://www.w3.org/2000/svg">
<path d="M39.0564 15.0188L26.7752 5.19378C24.3752 3.28128 20.6252 3.26253 18.2439 5.17503L5.96267 15.0188C4.20017 16.425 3.13142 19.2375 3.50642 21.45L5.86892 35.5875C6.41267 38.7563 9.35642 41.25 12.5627 41.25H32.4377C35.6064 41.25 38.6064 38.7 39.1502 35.5688L41.5127 21.4313C41.8502 19.2375 40.7814 16.425 39.0564 15.0188ZM23.9064 33.75C23.9064 34.5188 23.2689 35.1563 22.5002 35.1563C21.7314 35.1563 21.0939 34.5188 21.0939 33.75V28.125C21.0939 27.3563 21.7314 26.7188 22.5002 26.7188C23.2689 26.7188 23.9064 27.3563 23.9064 28.125V33.75Z" fill="#292D32"/>
</svg>
