<svg width="38" height="38" viewBox="0 0 38 38" fill="none" xmlns="http://www.w3.org/2000/svg">
<path d="M26.1252 28.8959H23.7344C23.0852 28.8959 22.5469 28.3576 22.5469 27.7084C22.5469 27.0592 23.0852 26.5209 23.7344 26.5209H26.1252C30.2735 26.5209 33.646 23.1484 33.646 19.0001C33.646 14.8517 30.2735 11.4792 26.1252 11.4792H23.7502C23.101 11.4792 22.5627 10.9409 22.5627 10.2917C22.5627 9.64258 23.0852 9.10425 23.7502 9.10425H26.1252C31.5877 9.10425 36.021 13.5376 36.021 19.0001C36.021 24.4626 31.5877 28.8959 26.1252 28.8959Z" fill="white"/>
<path d="M14.2498 28.8959H11.8748C6.41234 28.8959 1.979 24.4626 1.979 19.0001C1.979 13.5376 6.41234 9.10425 11.8748 9.10425H14.2498C14.899 9.10425 15.4373 9.64258 15.4373 10.2917C15.4373 10.9409 14.899 11.4792 14.2498 11.4792H11.8748C7.7265 11.4792 4.354 14.8517 4.354 19.0001C4.354 23.1484 7.7265 26.5209 11.8748 26.5209H14.2498C14.899 26.5209 15.4373 27.0592 15.4373 27.7084C15.4373 28.3576 14.899 28.8959 14.2498 28.8959Z" fill="white"/>
<path d="M25.3332 20.1875H12.6665C12.0173 20.1875 11.479 19.6492 11.479 19C11.479 18.3508 12.0173 17.8125 12.6665 17.8125H25.3332C25.9823 17.8125 26.5207 18.3508 26.5207 19C26.5207 19.6492 25.9823 20.1875 25.3332 20.1875Z" fill="white"/>
</svg>
