<svg width="38" height="38" viewBox="0 0 38 38" fill="none" xmlns="http://www.w3.org/2000/svg">
<path d="M37.4352 0.526704C37.3039 0.207981 36.992 0 36.6477 0C3.57107 0 0 13.708 0 19.6022C0 21.7227 0.470454 23.7033 1.39946 25.488C1.54264 25.7641 1.82557 25.9397 2.13582 25.9466C2.42897 25.938 2.73755 25.7915 2.89264 25.5204C5.12561 21.6613 11.4494 12.1363 21.8932 7.07558C22.3211 6.87104 22.8324 7.04658 23.0352 7.46766C23.2398 7.89209 23.0625 8.40345 22.6398 8.608C21.8523 8.98984 21.0955 9.40572 20.354 9.83694C20.0711 10.0023 19.7966 10.1779 19.5188 10.35C19.1012 10.6091 18.6887 10.8733 18.2864 11.146C17.8859 11.4154 17.4904 11.6915 17.1017 11.9744C16.9807 12.0631 16.8648 12.1534 16.7455 12.2438C6.35113 19.9892 0 32.3454 0 36.6477C0 37.1182 0.381844 37.5 0.852298 37.5C1.32275 37.5 1.7046 37.1182 1.7046 36.6477C1.7046 35.2738 2.64039 32.4886 4.41138 29.1665C6.98186 31.2682 10.4404 32.3864 14.4887 32.3864C25.4335 32.3864 27.7262 21.9716 28.9568 16.3756C30.6136 8.8449 34.2596 4.4455 37.2494 1.45403C37.4949 1.21025 37.5665 0.845427 37.4352 0.526704Z" fill="url(#paint0_linear_538_1686)"/>
<defs>
<linearGradient id="paint0_linear_538_1686" x1="5.51291" y1="-24.0234" x2="57.8856" y2="-21.8064" gradientUnits="userSpaceOnUse">
<stop stop-color="#6747E7"/>
<stop offset="1" stop-color="#00FFF0"/>
</linearGradient>
</defs>
</svg>
