<svg width="194" height="178" viewBox="0 0 194 178" fill="none" xmlns="http://www.w3.org/2000/svg">
<path d="M50.5173 141.591C37.5756 141.591 26.0646 133.298 21.8855 120.951L21.6025 120.02C20.6163 116.752 20.2041 114.001 20.2041 111.25V56.0859L0.593423 121.606C-1.92864 131.243 3.81875 141.235 13.4624 143.897L138.458 177.401C140.018 177.806 141.578 178 143.114 178C151.165 178 158.521 172.652 160.583 164.771L167.866 141.591H50.5173Z" fill="url(#paint0_linear_444_916)"/>
<path d="M72.7471 56.6362C81.6633 56.6362 88.9142 49.3786 88.9142 40.4543C88.9142 31.53 81.6633 24.2725 72.7471 24.2725C63.831 24.2725 56.5801 31.53 56.5801 40.4543C56.5801 49.3786 63.831 56.6362 72.7471 56.6362Z" fill="url(#paint1_linear_444_916)"/>
<path d="M173.791 0H52.5382C41.3991 0 32.3293 9.07801 32.3293 20.2273V109.227C32.3293 120.377 41.3991 129.455 52.5382 129.455H173.791C184.93 129.455 194 120.377 194 109.227V20.2273C194 9.07801 184.93 0 173.791 0ZM52.5382 16.1818H173.791C176.022 16.1818 177.833 17.9942 177.833 20.2273V77.6648L152.297 47.8416C149.589 44.6619 145.669 42.9628 141.457 42.8657C137.27 42.89 133.341 44.7509 130.657 47.9711L100.635 84.0404L90.8541 74.2747C85.325 68.7405 76.328 68.7405 70.807 74.2747L48.4964 96.5975V20.2273C48.4964 17.9942 50.3071 16.1818 52.5382 16.1818Z" fill="url(#paint2_linear_444_916)"/>
<defs>
<linearGradient id="paint0_linear_444_916" x1="83.933" y1="56.0859" x2="89.1082" y2="179.119" gradientUnits="userSpaceOnUse">
<stop stop-color="#FE0133"/>
<stop offset="1" stop-color="#EF971F"/>
</linearGradient>
<linearGradient id="paint1_linear_444_916" x1="72.7471" y1="24.2725" x2="72.7471" y2="56.6362" gradientUnits="userSpaceOnUse">
<stop stop-color="#6747E7"/>
<stop offset="1" stop-color="#B800DF"/>
</linearGradient>
<linearGradient id="paint2_linear_444_916" x1="113.165" y1="0" x2="113.165" y2="129.455" gradientUnits="userSpaceOnUse">
<stop stop-color="#6747E7"/>
<stop offset="1" stop-color="#B800DF"/>
</linearGradient>
</defs>
</svg>
