<svg width="350" height="261" viewBox="0 0 350 261" fill="none" xmlns="http://www.w3.org/2000/svg">
<path d="M349.066 260.383H0.348283C0.155722 260.383 0 260.227 0 260.035C0 259.842 0.155722 259.687 0.348283 259.687H349.066C349.258 259.687 349.414 259.842 349.414 260.035C349.414 260.227 349.258 260.383 349.066 260.383Z" fill="#353640"/>
<path d="M19.477 260.034C19.477 260.034 -13.1614 225.501 9.75512 138.412C32.67 51.3259 71.5574 -6.85617 130.582 0.65039C189.606 8.15862 185.999 76.9149 254.186 100.5C322.373 124.086 377.011 162.812 330.53 260.034H19.477Z" fill="#F0F0F0"/>
<path d="M171.46 101.458L152.117 108.509C151.781 108.628 151.411 108.46 151.292 108.125L141.865 82.2612C141.746 81.9258 141.914 81.5554 142.25 81.4366L154.164 77.0969L165.15 82.2682L171.845 100.64C171.963 100.969 171.796 101.339 171.46 101.458Z" fill="#407BFF"/>
<path opacity="0.5" d="M171.46 101.458L152.117 108.509C151.781 108.628 151.411 108.46 151.292 108.125L141.865 82.2612C141.746 81.9258 141.914 81.5554 142.25 81.4366L154.164 77.0969L165.15 82.2682L171.845 100.64C171.963 100.969 171.796 101.339 171.46 101.458Z" fill="white"/>
<path opacity="0.1" d="M165.122 82.1987L157.092 85.1198L154.164 77.0903L165.122 82.1987Z" fill="black"/>
<path d="M162.453 84.5403L148.146 89.7542L151.45 98.8219L165.757 93.6081L162.453 84.5403Z" fill="#407BFF"/>
<path opacity="0.7" d="M162.453 84.5403L148.146 89.7542L151.45 98.8219L165.757 93.6081L162.453 84.5403Z" fill="white"/>
<path d="M154.318 94.2463L152.341 98.4952L158.567 96.224L154.318 94.2463Z" fill="#407BFF"/>
<path opacity="0.2" d="M154.318 94.2463L152.341 98.4952L158.567 96.224L154.318 94.2463Z" fill="white"/>
<path d="M157.169 96.7338L165.744 93.61L165.443 92.7854L160.153 90.3186L157.169 96.7338Z" fill="#407BFF"/>
<path opacity="0.4" d="M157.169 96.7338L165.744 93.61L165.443 92.7854L160.153 90.3186L157.169 96.7338Z" fill="white"/>
<path d="M156.569 90.3324C156.876 91.178 156.443 92.1074 155.597 92.4149C154.752 92.7224 153.822 92.2891 153.515 91.4435C153.207 90.598 153.641 89.6685 154.486 89.361C155.325 89.0536 156.261 89.4938 156.569 90.3324Z" fill="white"/>
<path d="M186.611 117.441C182.585 111.242 174.276 109.481 168.078 113.499L167.169 112.095C174.137 107.566 183.494 109.558 188.015 116.525L186.611 117.441Z" fill="#407BFF"/>
<path d="M170.279 116.895L169.371 115.49C174.472 112.178 181.313 113.631 184.626 118.733L183.221 119.641C180.412 115.316 174.605 114.086 170.279 116.895Z" fill="#407BFF"/>
<g opacity="0.6">
<path d="M186.611 117.441C182.585 111.242 174.276 109.481 168.078 113.499L167.169 112.095C174.137 107.566 183.494 109.558 188.015 116.525L186.611 117.441Z" fill="white"/>
</g>
<g opacity="0.6">
<path d="M170.279 116.895L169.371 115.49C174.472 112.178 181.313 113.631 184.626 118.733L183.221 119.641C180.412 115.316 174.605 114.086 170.279 116.895Z" fill="white"/>
</g>
<path d="M180.126 121.655C178.421 119.034 174.906 118.286 172.285 119.992L171.376 118.587C174.773 116.386 179.329 117.35 181.53 120.746L180.126 121.655Z" fill="#407BFF"/>
<path d="M178.407 122.765C177.317 121.095 175.073 120.613 173.403 121.703L173.054 121.933L175.255 125.316L178.644 123.114L178.407 122.765Z" fill="#407BFF"/>
<path d="M190.643 116.147C190.244 118.026 188.393 119.228 186.506 118.83C184.626 118.432 183.424 116.58 183.822 114.693C184.221 112.813 186.073 111.611 187.959 112.01C189.839 112.415 191.041 114.267 190.643 116.147Z" fill="#407BFF"/>
<path opacity="0.8" d="M189.559 114.441L189.07 113.694L187.358 114.805L186.247 113.093L185.506 113.582L186.617 115.294L184.905 116.405L185.387 117.146L187.1 116.035L188.211 117.747L188.958 117.264L187.847 115.552L189.559 114.441Z" fill="white"/>
<path d="M175.311 154.652C174.891 154.652 174.549 154.31 174.549 153.89V147.335C174.549 146.916 174.891 146.574 175.311 146.574C175.73 146.574 176.072 146.916 176.072 147.335V153.89C176.072 154.31 175.73 154.652 175.311 154.652Z" fill="#407BFF"/>
<path d="M175.311 168.636C174.891 168.636 174.549 168.294 174.549 167.875V161.32C174.549 160.901 174.891 160.558 175.311 160.558C175.73 160.558 176.072 160.901 176.072 161.32V167.875C176.072 168.294 175.73 168.636 175.311 168.636Z" fill="#407BFF"/>
<path d="M185.576 158.364H179.021C178.602 158.364 178.26 158.021 178.26 157.602C178.26 157.183 178.602 156.84 179.021 156.84H185.576C185.996 156.84 186.338 157.183 186.338 157.602C186.345 158.021 186.003 158.364 185.576 158.364Z" fill="#407BFF"/>
<path d="M171.593 158.364H165.038C164.618 158.364 164.276 158.021 164.276 157.602C164.276 157.183 164.618 156.84 165.038 156.84H171.593C172.012 156.84 172.354 157.183 172.354 157.602C172.354 158.021 172.012 158.364 171.593 158.364Z" fill="#407BFF"/>
<path d="M177.393 155.512C177.092 155.211 177.092 154.729 177.393 154.428L182.026 149.795C182.327 149.495 182.809 149.495 183.109 149.795C183.41 150.096 183.41 150.578 183.109 150.878L178.476 155.512C178.176 155.812 177.693 155.812 177.393 155.512Z" fill="#407BFF"/>
<g opacity="0.5">
<path d="M185.576 158.364H179.021C178.602 158.364 178.26 158.021 178.26 157.602C178.26 157.183 178.602 156.84 179.021 156.84H185.576C185.996 156.84 186.338 157.183 186.338 157.602C186.345 158.021 186.003 158.364 185.576 158.364Z" fill="white"/>
</g>
<g opacity="0.5">
<path d="M177.393 155.512C177.092 155.211 177.092 154.729 177.393 154.428L182.026 149.795C182.327 149.495 182.809 149.495 183.109 149.795C183.41 150.096 183.41 150.578 183.109 150.878L178.476 155.512C178.176 155.812 177.693 155.812 177.393 155.512Z" fill="white"/>
</g>
<path d="M167.505 165.4C167.204 165.1 167.204 164.618 167.505 164.317L172.138 159.684C172.438 159.383 172.921 159.383 173.221 159.684C173.522 159.984 173.522 160.467 173.221 160.767L168.588 165.4C168.287 165.701 167.805 165.701 167.505 165.4Z" fill="#407BFF"/>
<path d="M182.026 165.4L177.393 160.767C177.092 160.467 177.092 159.984 177.393 159.684C177.693 159.383 178.176 159.383 178.476 159.684L183.109 164.317C183.41 164.618 183.41 165.1 183.109 165.4C182.809 165.701 182.327 165.701 182.026 165.4Z" fill="#407BFF"/>
<g opacity="0.3">
<path d="M175.311 168.636C174.891 168.636 174.549 168.294 174.549 167.875V161.32C174.549 160.901 174.891 160.558 175.311 160.558C175.73 160.558 176.072 160.901 176.072 161.32V167.875C176.072 168.294 175.73 168.636 175.311 168.636Z" fill="white"/>
</g>
<g opacity="0.3">
<path d="M182.026 165.4L177.393 160.767C177.092 160.467 177.092 159.984 177.393 159.684C177.693 159.383 178.176 159.383 178.476 159.684L183.109 164.317C183.41 164.618 183.41 165.1 183.109 165.4C182.809 165.701 182.327 165.701 182.026 165.4Z" fill="white"/>
</g>
<path d="M172.138 155.512L167.505 150.878C167.204 150.578 167.204 150.096 167.505 149.795C167.805 149.495 168.287 149.495 168.588 149.795L173.221 154.428C173.522 154.729 173.522 155.211 173.221 155.512C172.921 155.812 172.438 155.812 172.138 155.512Z" fill="#407BFF"/>
<g opacity="0.7">
<path d="M175.311 154.652C174.891 154.652 174.549 154.31 174.549 153.89V147.335C174.549 146.916 174.891 146.574 175.311 146.574C175.73 146.574 176.072 146.916 176.072 147.335V153.89C176.072 154.31 175.73 154.652 175.311 154.652Z" fill="white"/>
</g>
<g opacity="0.7">
<path d="M172.138 155.512L167.505 150.878C167.204 150.578 167.204 150.096 167.505 149.795C167.805 149.495 168.287 149.495 168.588 149.795L173.221 154.428C173.522 154.729 173.522 155.211 173.221 155.512C172.921 155.812 172.438 155.812 172.138 155.512Z" fill="white"/>
</g>
<path d="M141.104 109.348C140.195 113.61 136.009 116.329 131.746 115.427C127.484 114.519 124.765 110.333 125.667 106.07C126.575 101.807 130.761 99.089 135.024 99.9905C139.294 100.899 142.012 105.085 141.104 109.348Z" fill="#407BFF"/>
<path opacity="0.6" d="M141.104 109.348C140.195 113.61 136.009 116.329 131.746 115.427C127.484 114.519 124.765 110.333 125.667 106.07C126.575 101.807 130.761 99.089 135.024 99.9905C139.294 100.899 142.012 105.085 141.104 109.348Z" fill="white"/>
<path opacity="0.8" d="M138.658 105.482L137.561 103.798L133.683 106.314L131.167 102.443L129.483 103.54L131.998 107.411L128.127 109.927L129.217 111.611L133.096 109.095L135.611 112.974L137.295 111.877L134.78 108.005L138.658 105.482Z" fill="white"/>
<path d="M156.436 170.573C152.697 171.369 150.314 175.038 151.111 178.777C151.907 182.515 160.859 191.369 160.859 191.369C160.859 191.369 165.436 179.643 164.64 175.904C163.843 172.166 160.174 169.783 156.436 170.573ZM158.385 179.727C157.064 180.007 155.772 179.168 155.492 177.847C155.213 176.526 156.051 175.234 157.372 174.954C158.693 174.675 159.986 175.513 160.265 176.834C160.545 178.148 159.699 179.448 158.385 179.727Z" fill="#407BFF"/>
<path opacity="0.5" d="M156.436 170.573C152.697 171.369 150.314 175.038 151.111 178.777C151.907 182.515 160.859 191.369 160.859 191.369C160.859 191.369 165.436 179.643 164.64 175.904C163.843 172.166 160.174 169.783 156.436 170.573ZM158.385 179.727C157.064 180.007 155.772 179.168 155.492 177.847C155.213 176.526 156.051 175.234 157.372 174.954C158.693 174.675 159.986 175.513 160.265 176.834C160.545 178.148 159.699 179.448 158.385 179.727Z" fill="white"/>
<path d="M214.528 111.639C210.419 113.953 199.064 112.031 195.94 108.495C194.207 106.538 195.548 99.6967 197.687 98.1802C201.53 95.4478 213.543 97.4814 216.275 101.325C217.785 103.456 216.807 110.361 214.528 111.639Z" fill="#407BFF"/>
<path opacity="0.4" d="M214.528 111.639C210.419 113.953 199.064 112.031 195.94 108.495C194.207 106.538 195.548 99.6967 197.687 98.1802C201.53 95.4478 213.543 97.4814 216.275 101.325C217.785 103.456 216.807 110.361 214.528 111.639Z" fill="white"/>
<path d="M210.664 105.539L202.509 108.425L203.913 100.137L210.664 105.539Z" fill="white"/>
<path d="M220.825 235.757L213.599 245.806L208.889 243.081L213.928 231.83L220.825 235.757Z" fill="#B55B52"/>
<path d="M210.81 239.105L215.506 243.389C215.674 243.542 215.716 243.801 215.604 243.997L213.04 248.462C212.774 248.923 212.138 249.014 211.747 248.644C210.132 247.12 209.427 246.296 207.358 244.409C206.086 243.249 201.509 239.307 199.755 237.707C198.043 236.142 199.357 234.164 200.216 234.66C204.081 236.897 208.022 238.72 209.895 238.734C210.237 238.748 210.559 238.874 210.81 239.105Z" fill="#263238"/>
<path d="M208.127 237.63C208.224 238.378 209.329 239.084 209.978 239.447C210.034 239.475 210.104 239.475 210.153 239.433C210.202 239.391 210.223 239.328 210.209 239.266C210.104 238.881 209.531 236.952 208.853 236.771C208.741 236.743 208.574 236.736 208.406 236.904C208.371 236.938 208.343 236.966 208.315 237.001C208.154 237.183 208.092 237.4 208.127 237.63ZM208.441 237.588C208.42 237.421 208.483 237.267 208.63 237.127C208.693 237.064 208.742 237.064 208.776 237.071C209.098 237.155 209.524 238.126 209.79 238.965C208.986 238.476 208.49 237.973 208.441 237.588Z" fill="#407BFF"/>
<path d="M209.902 239.356C209.923 239.412 209.972 239.454 210.028 239.461C210.084 239.468 210.14 239.454 210.182 239.405C210.224 239.349 211.23 238.042 211.111 237.197C211.076 236.973 210.972 236.791 210.797 236.666C210.517 236.47 210.315 236.561 210.217 236.638C210.182 236.666 210.154 236.694 210.119 236.728C209.686 237.246 209.7 238.762 209.902 239.356ZM210.399 236.889C210.427 236.868 210.476 236.833 210.608 236.924C210.713 237.001 210.776 237.099 210.79 237.239C210.86 237.714 210.441 238.469 210.126 238.93C210.021 238.217 210.119 237.099 210.399 236.889Z" fill="#407BFF"/>
<path d="M212.963 233.822C218.637 220.642 224.032 204.185 228.833 192.34C235.318 176.337 258.163 146.155 258.163 146.155L259.819 144.149L279.47 143.052V150.292C279.47 150.292 244.689 190.803 240.783 201.655C236.513 213.521 227.428 227.148 219.21 238.336L212.963 233.822Z" fill="#407BFF"/>
<path d="M219.658 238.064L218.477 239.28C218.477 239.28 212.068 234.8 212.124 234.723C212.173 234.646 212.956 233.151 212.956 233.151L219.658 238.064Z" fill="#407BFF"/>
<path opacity="0.4" d="M219.658 238.064L218.477 239.28C218.477 239.28 212.068 234.8 212.124 234.723C212.173 234.646 212.956 233.151 212.956 233.151L219.658 238.064Z" fill="white"/>
<path opacity="0.2" d="M257.422 177.183C261.119 159.803 267.785 150.173 267.785 150.173L271.314 152.731L272.44 158.643C268.24 163.682 262.705 170.425 257.422 177.183Z" fill="black"/>
<path d="M277.89 242.801L276.674 255.128H271.23L269.952 242.864L277.89 242.801Z" fill="#B55B52"/>
<path d="M270.657 253.599L277.01 253.473C277.24 253.466 277.443 253.627 277.499 253.851L278.715 258.854C278.841 259.371 278.442 259.875 277.904 259.875C275.682 259.882 274.606 259.77 271.81 259.826C270.091 259.861 264.054 260.161 261.678 260.203C259.357 260.252 258.945 257.911 259.917 257.673C264.256 256.632 268.372 255.234 269.742 253.956C269.994 253.732 270.322 253.606 270.657 253.599Z" fill="#263238"/>
<path d="M267.695 254.374C268.282 254.849 269.567 254.598 270.287 254.416C270.35 254.402 270.392 254.346 270.406 254.283C270.413 254.22 270.385 254.157 270.329 254.123C269.987 253.92 268.247 252.914 267.632 253.249C267.527 253.305 267.408 253.417 267.394 253.654C267.394 253.703 267.394 253.745 267.394 253.787C267.415 254.032 267.513 254.227 267.695 254.374ZM267.897 254.13C267.764 254.025 267.709 253.871 267.715 253.668C267.722 253.577 267.75 253.55 267.785 253.529C268.079 253.375 269.057 253.78 269.826 254.199C268.903 254.395 268.198 254.367 267.897 254.13Z" fill="#407BFF"/>
<path d="M270.175 254.402C270.224 254.43 270.287 254.423 270.336 254.395C270.385 254.36 270.413 254.311 270.406 254.248C270.399 254.179 270.231 252.536 269.553 252.005C269.372 251.866 269.176 251.81 268.959 251.838C268.624 251.886 268.54 252.096 268.519 252.215C268.512 252.257 268.512 252.299 268.512 252.348C268.561 253.019 269.616 254.116 270.175 254.402ZM268.834 252.271C268.841 252.243 268.848 252.173 269.008 252.152C269.134 252.138 269.253 252.166 269.358 252.257C269.735 252.557 269.952 253.389 270.043 253.941C269.477 253.501 268.778 252.613 268.834 252.271Z" fill="#407BFF"/>
<path d="M279.435 203.137C281.035 213.249 279.428 233.305 277.792 247.771L270.315 247.589C268.519 232.565 265.717 211.3 264.473 200.726C262.446 183.577 266.968 143.766 266.968 143.766L287.394 143.339C287.394 143.339 287.415 146.722 286.388 151.949C283.369 167.267 278.093 194.64 279.435 203.137Z" fill="#407BFF"/>
<path d="M278.198 247.47L277.925 249.14C277.925 249.14 270.106 249.112 270.106 249.021C270.106 248.93 269.896 247.26 269.896 247.26L278.198 247.47Z" fill="#407BFF"/>
<path opacity="0.4" d="M278.198 247.47L277.925 249.14C277.925 249.14 270.106 249.112 270.106 249.021C270.106 248.93 269.896 247.26 269.896 247.26L278.198 247.47Z" fill="white"/>
<path d="M260.231 104.833L255.64 114.477C254.857 116.071 254.089 117.671 253.285 119.208C252.88 119.977 252.474 120.746 252.062 121.479C251.859 121.857 251.65 122.213 251.44 122.563L251.14 123.066C251.077 123.136 251.07 123.198 250.986 123.289C250.706 123.646 250.175 124.107 249.588 124.54C248.994 124.98 248.295 125.393 247.583 125.798C246.15 126.609 244.585 127.342 242.991 128.041C239.798 129.418 236.436 130.704 233.103 131.892L233.893 135.372C237.596 134.883 241.195 134.156 244.815 133.094C246.618 132.556 248.421 131.955 250.231 131.158C251.133 130.753 252.041 130.319 252.963 129.774C253.886 129.222 254.822 128.593 255.766 127.615C255.996 127.391 256.241 127.07 256.465 126.79L256.912 126.168C257.205 125.763 257.485 125.358 257.743 124.96C258.289 124.156 258.771 123.352 259.26 122.549C260.224 120.941 261.126 119.327 261.992 117.699C263.732 114.442 265.312 111.172 266.8 107.79L260.231 104.833Z" fill="#B55B52"/>
<path d="M270.909 104.331C271.859 109.104 260.161 123.108 260.161 123.108L251.845 118.405C251.845 118.405 254.305 111.368 258.393 105.498C262.698 99.3201 269.854 99.0196 270.909 104.331Z" fill="#2A1D19"/>
<path opacity="0.2" d="M270.972 104.931C268.966 103.96 265.004 104.798 261.894 108.733C258.826 112.632 257.107 119.236 256.618 121.109L260.161 123.107C260.161 123.114 271.063 110.144 270.972 104.931Z" fill="black"/>
<path d="M233.536 131.801L230.217 131.501C228.477 131.347 226.967 132.696 226.932 134.45C226.89 136.777 229.385 138.272 231.419 137.14C232.439 136.574 233.452 135.903 234.27 135.149L233.536 131.801Z" fill="#B55B52"/>
<path d="M264.955 100.739C264.955 100.739 258.33 115.358 259.483 145.177C268.393 145.128 282.81 143.688 287.143 143.667C288.037 139.53 288.051 122.989 294.83 103.457C295.41 101.78 294.334 99.984 292.573 99.7394C290.798 99.4948 288.526 99.2362 286.283 99.1454C282.53 98.9916 277.08 98.9078 273.711 99.2153C269.267 99.6206 264.955 100.739 264.955 100.739Z" fill="#353640"/>
<path d="M289.714 85.8257C287.562 89.6343 284.284 96.6085 286.276 99.1382C281.769 100.704 280.42 104.561 275.179 103.834C272.838 103.513 272.474 101.256 273.383 99.3129C278.344 98.2856 279.4 95.0012 279.644 92.0452L289.714 85.8257Z" fill="#B55B52"/>
<path opacity="0.2" d="M278.457 96.126C279.232 94.8681 279.526 93.4286 279.638 92.0589L284.774 88.8862L286.696 92.1288C286.703 92.1218 283.844 96.7689 278.457 96.126Z" fill="black"/>
<path d="M279.211 72.4569C274.9 73.4143 274.844 82.8135 276.472 84.0434C279.512 86.3495 284.557 71.2689 279.211 72.4569Z" fill="#263238"/>
<path d="M290.749 82.4991C289.456 87.7193 288.967 90.836 285.801 93.0583C281.042 96.3986 274.976 92.7857 274.683 87.286C274.417 82.3384 276.577 74.6374 282.125 73.4843C287.597 72.3522 292.041 77.2859 290.749 82.4991Z" fill="#B55B52"/>
<path d="M295.78 79.1379C295.347 82.2617 290.322 89.8858 288.142 89.2848C285.961 88.6838 286.891 81.6537 288.806 77.5027C286.863 76.5174 270.958 75.6089 276.388 71.4998C276.388 71.4998 272.914 65.3013 279.295 68.3621C279.295 68.3621 281.307 60.4096 284.515 67.5725C284.515 67.5725 288.708 61.9819 290.105 69.2357C290.105 69.2357 294.263 67.0903 294.04 72.3873C294.04 72.3873 299.162 72.4642 295.612 75.9583C295.619 75.9653 300.161 78.0688 295.78 79.1379Z" fill="#263238"/>
<path d="M292.063 88.7533C291.091 89.8295 289.714 90.3536 288.527 90.3955C286.738 90.4584 286.262 88.7533 287.108 87.2858C287.87 85.965 289.721 84.3367 291.35 84.9727C292.957 85.6016 293.174 87.5234 292.063 88.7533Z" fill="#B55B52"/>
<path d="M281.643 82.925C281.566 83.3513 281.273 83.6588 280.993 83.6099C280.714 83.5609 280.546 83.1696 280.63 82.7363C280.707 82.3101 281 82.0026 281.28 82.0515C281.559 82.1074 281.72 82.4918 281.643 82.925Z" fill="#263238"/>
<path d="M276.786 82.0315C276.71 82.4578 276.416 82.7652 276.137 82.7163C275.857 82.6674 275.689 82.2761 275.773 81.8428C275.85 81.4165 276.143 81.109 276.423 81.1579C276.703 81.2139 276.863 81.6052 276.786 82.0315Z" fill="#263238"/>
<path d="M279.036 82.6948C279.036 82.6948 277.604 84.9939 276.311 85.9933C276.94 86.8388 278.296 86.755 278.296 86.755L279.036 82.6948Z" fill="#A02724"/>
<path d="M279.064 88.7469C279.001 88.726 278.967 88.6631 278.974 88.6002C278.988 88.5303 279.05 88.4814 279.12 88.4953C281.007 88.8378 282.125 87.6847 282.139 87.6707C282.188 87.6218 282.272 87.6148 282.321 87.6638C282.37 87.7127 282.377 87.7965 282.328 87.8454C282.279 87.8944 281.098 89.1103 279.078 88.7399C279.071 88.7539 279.064 88.7539 279.064 88.7469Z" fill="#263238"/>
<path d="M283.942 81.3668C283.879 81.3459 283.823 81.3039 283.789 81.234C283.278 80.2208 282.363 80.102 282.328 80.095C282.188 80.081 282.09 79.9482 282.104 79.8085C282.118 79.6687 282.244 79.5708 282.384 79.5848C282.433 79.5918 283.607 79.7386 284.25 81.0034C284.313 81.1292 284.264 81.283 284.138 81.3459C284.075 81.3878 284.005 81.3878 283.942 81.3668Z" fill="#263238"/>
<path d="M275.849 79.9697C275.822 79.9627 275.801 79.9488 275.773 79.9348C275.661 79.8509 275.633 79.6902 275.717 79.5784C276.555 78.4323 277.743 78.4882 277.792 78.4882C277.932 78.4952 278.044 78.621 278.037 78.7608C278.03 78.9005 277.911 79.0124 277.764 79.0054C277.722 79.0054 276.8 78.9774 276.129 79.8859C276.066 79.9627 275.947 79.9977 275.849 79.9697Z" fill="#263238"/>
<path d="M281.112 74.3862C281.112 74.3862 277.317 74.7915 277.925 76.3359C278.533 77.8803 284.774 75.693 284.774 75.693L281.112 74.3862Z" fill="#263238"/>
<path d="M285.214 75.1753C285.214 75.1753 281.419 75.5806 282.027 77.125C282.635 78.6694 288.876 76.4821 288.876 76.4821L285.214 75.1753Z" fill="#263238"/>
<path d="M314.424 253.235C314.368 253.221 311.915 252.39 285.179 252.39C281.356 252.39 278.12 250.908 275.549 247.98C263.431 234.186 273.725 190.824 277.093 164.919C277.981 158.112 278.679 152.738 278.679 150.404C278.679 148.587 278.058 147.21 276.779 146.183C272.236 142.535 260.79 144.052 256.764 144.946L256.01 141.536C256.667 141.389 272.201 138.028 278.966 143.465C281.097 145.17 282.174 147.511 282.174 150.411C282.174 152.969 281.496 158.168 280.559 165.373C277.485 189.035 267.107 233.074 278.176 245.681C280.077 247.847 282.369 248.903 285.179 248.903C312.558 248.903 314.927 249.776 315.2 249.839L314.424 253.235Z" fill="#407BFF"/>
<g opacity="0.7">
<path d="M314.424 253.235C314.368 253.221 311.915 252.39 285.179 252.39C281.356 252.39 278.12 250.908 275.549 247.98C263.431 234.186 273.725 190.824 277.093 164.919C277.981 158.112 278.679 152.738 278.679 150.404C278.679 148.587 278.058 147.21 276.779 146.183C272.236 142.535 260.79 144.052 256.764 144.946L256.01 141.536C256.667 141.389 272.201 138.028 278.966 143.465C281.097 145.17 282.174 147.511 282.174 150.411C282.174 152.969 281.496 158.168 280.559 165.373C277.485 189.035 267.107 233.074 278.176 245.681C280.077 247.847 282.369 248.903 285.179 248.903C312.558 248.903 314.927 249.776 315.2 249.839L314.424 253.235Z" fill="white"/>
</g>
<path d="M214.27 127.118V139.858V146.315V159.054L262.292 151.528C264.592 151.165 266.283 149.187 266.283 146.86V146.315V139.858V139.313C266.283 136.986 264.592 135.008 262.292 134.645L214.27 127.118Z" fill="#407BFF"/>
<path opacity="0.4" d="M214.27 127.118V139.858V146.315V159.054L262.292 151.528C264.592 151.165 266.283 149.187 266.283 146.86V146.315V139.858V139.313C266.283 136.986 264.592 135.008 262.292 134.645L214.27 127.118Z" fill="white"/>
<path opacity="0.2" d="M262.286 147.406L214.263 154.932V159.055L262.286 151.529C264.585 151.165 266.276 149.188 266.276 146.861V146.316V142.738C266.276 145.065 264.585 147.042 262.286 147.406Z" fill="#263238"/>
<path d="M212.767 122.374H194.423V141.85H238.994V131.87L212.767 122.374Z" fill="#407BFF"/>
<path opacity="0.6" d="M212.767 122.374H194.423V141.85H238.994V131.87L212.767 122.374Z" fill="white"/>
<path d="M220.643 162.695L194.423 153.198V122.374L220.643 131.87V162.695Z" fill="#407BFF"/>
<path opacity="0.4" d="M220.643 162.695L194.423 153.198V122.374L220.643 131.87V162.695Z" fill="white"/>
<path d="M238.994 131.871H220.643V162.696H238.994V131.871Z" fill="#407BFF"/>
<path opacity="0.2" d="M238.994 131.871H220.643V162.696H238.994V131.871Z" fill="white"/>
<path d="M212.236 139.263V132.66L202.83 129.249V135.86L198.965 134.462V151.004L216.1 157.209V140.661L212.236 139.263Z" fill="#263238"/>
<path opacity="0.1" d="M212.236 139.263V132.66L202.83 129.249V135.86L198.965 134.462V151.004L216.1 157.209V140.661L212.236 139.263Z" fill="white"/>
<path d="M216.101 154.932V146.05H202.026V152.116L209.804 154.932H216.101Z" fill="#407BFF"/>
<path opacity="0.2" d="M216.101 154.932V146.05H202.026V152.116L209.804 154.932H216.101Z" fill="white"/>
<path d="M201.236 131.744L198.965 130.927V127.852L201.236 128.676V131.744Z" fill="white"/>
<path d="M216.1 137.125L213.829 136.307V133.233L216.1 134.057V137.125Z" fill="#407BFF"/>
<path d="M216.1 156.106V150.04H213.04V156.106H216.1Z" fill="#407BFF"/>
<path opacity="0.2" d="M216.1 156.106V150.04H213.04V156.106H216.1Z" fill="black"/>
<path d="M202.026 152.116L213.04 156.106V150.04L202.026 146.05V152.116Z" fill="#407BFF"/>
<path d="M291.043 106.195C290.414 107.684 289.729 109.319 289.009 110.842C288.289 112.387 282.88 125.133 282.426 125.636C281.979 126.132 264.781 133.512 260.721 135.329L261.063 137.46C261.203 138.327 261.266 138.599 262.139 138.543C265.242 138.348 281.504 133.819 282.447 133.582C282.922 133.463 284.907 132.841 285.571 132.52C289.442 131.15 293.656 119.354 294.46 117.663C294.858 116.817 296.605 112.359 296.975 111.499C297.353 110.633 297.688 109.801 298.031 108.858L291.043 106.195Z" fill="#B55B52"/>
<path d="M261.042 135.378L256.045 136.691C254.403 137.013 253.522 138.886 254.13 140.773C254.934 143.281 257.75 144.19 259.19 142.408C259.798 141.653 261.503 139.599 261.95 138.732C262.104 138.439 262.083 138.089 261.922 137.796L261.042 135.378Z" fill="#B55B52"/>
<path d="M296.158 100.961C303.733 103.728 294.376 123.568 294.376 123.568L283.635 119.62C283.635 119.62 285.969 115.07 288.023 108.9C289.98 103.009 291.343 99.2071 296.158 100.961Z" fill="#2A1D19"/>
<path d="M99.9427 141.347C99.9427 141.347 97.371 179.482 96.0363 197.197C94.6386 215.8 95.8686 241.628 97.5108 253.592C96.5255 254.27 93.4646 254.144 91.3821 253.669C91.3821 253.669 79.2856 221.034 82.9614 199.985C80.0613 186.568 81.0885 176.226 79.9564 168.545C77.6084 152.675 82.8426 145.436 82.8426 145.436L99.9427 141.347Z" fill="#B55B52"/>
<path d="M103.388 140.984C103.388 140.984 116.743 175.527 122.445 192.347C128.434 210.014 138.448 231.775 144.64 242.145C143.997 243.152 141.188 244.514 139.084 244.885C139.084 244.885 116.219 219.629 112.152 199.755C87.3016 164.59 88.5525 144.45 88.5525 144.45L103.388 140.984Z" fill="#B55B52"/>
<path opacity="0.2" d="M117.637 178.784C114.457 179.748 108.217 181.502 101.368 182.69C97.476 175.695 94.7576 169.573 92.8638 164.409L110.565 159.79C112.836 165.807 115.352 172.529 117.637 178.784Z" fill="black"/>
<path opacity="0.2" d="M98.4685 162.948C98.0142 169.503 97.5111 176.722 97.0429 183.347C91.2357 184.08 85.3656 184.227 80.8442 182.997C80.5577 177.407 80.5577 172.606 79.9567 168.56C79.9218 168.308 79.8868 168.063 79.8589 167.812L98.4685 162.948Z" fill="black"/>
<path d="M91.0195 113.338C92.487 116.399 94.0454 119.278 95.7854 122.172C97.5674 125.044 99.3703 127.846 101.914 130.627C102.578 131.319 103.277 132.018 104.276 132.738C104.528 132.919 104.786 133.094 105.101 133.262C105.415 133.443 105.66 133.541 105.939 133.674C106.463 133.891 106.96 134.065 107.435 134.198C109.329 134.729 111.034 134.967 112.746 135.135C116.163 135.456 119.461 135.442 122.83 135.177C123.899 135.093 124.696 134.156 124.612 133.087C124.542 132.221 123.913 131.529 123.109 131.347L123.053 131.333C119.944 130.627 116.778 129.935 113.801 129.146C112.326 128.74 110.845 128.314 109.657 127.79C109.363 127.657 109.112 127.531 108.895 127.413C108.818 127.357 108.693 127.294 108.665 127.252C108.623 127.217 108.553 127.161 108.483 127.091C108.182 126.833 107.742 126.35 107.33 125.84C106.484 124.792 105.632 123.541 104.835 122.248C104.031 120.956 103.228 119.621 102.473 118.251C100.936 115.54 99.4263 112.696 98.0007 109.942L97.9727 109.886C96.9874 107.978 94.6393 107.231 92.7386 108.216C90.8727 109.173 90.118 111.452 91.0195 113.338Z" fill="#B55B52"/>
<path d="M91.1519 107.349C91.1519 107.349 98.4056 104.17 103.647 118.356C103.647 118.356 101.9 121.941 95.785 122.961C95.785 122.961 91.1449 114.386 91.1519 107.349Z" fill="#407BFF"/>
<path opacity="0.2" d="M91.1519 107.349C91.1519 107.349 98.4056 104.17 103.647 118.356C103.647 118.356 101.9 121.941 95.785 122.961C95.785 122.961 91.1449 114.386 91.1519 107.349Z" fill="black"/>
<path d="M95.8967 124.073C95.8967 124.073 101.082 123.668 104.751 118.713L104.143 117.476L102.487 116.372C102.487 116.372 100.614 119.726 94.0938 121.201L95.8967 124.073Z" fill="#407BFF"/>
<path opacity="0.7" d="M95.8967 124.073C95.8967 124.073 101.082 123.668 104.751 118.713L104.143 117.476L102.487 116.372C102.487 116.372 100.614 119.726 94.0938 121.201L95.8967 124.073Z" fill="white"/>
<path d="M103.444 259.175C99.0486 259.518 98.4616 259.497 95.9877 259.602C93.8633 259.693 93.3811 259.993 91.676 260.091C90.2504 260.168 90.2015 258.805 90.516 257.212C90.6767 256.408 90.8794 254.724 91.089 253.431L97.4902 252.46C98.5314 254.116 100.768 256.429 103.269 256.569C105.659 256.702 105.198 259.036 103.444 259.175Z" fill="#263238"/>
<path d="M152.669 245.347C148.755 247.38 148.21 247.59 145.974 248.659C144.059 249.567 143.731 250.043 142.201 250.79C140.922 251.419 140.342 250.189 140.006 248.589C139.838 247.785 139.37 246.157 139.049 244.885L144.563 241.489C146.17 242.607 149.133 243.858 151.488 243.005C153.738 242.202 154.227 244.536 152.669 245.347Z" fill="#263238"/>
<path d="M104.052 140.67L117.56 175.437C117.56 175.437 98.797 183.005 79.3488 180.908C79.3488 180.908 80.2852 175.199 79.3488 170.657C78.4124 166.114 77.1685 156.212 81.8017 145.471L82.3537 144.507L103.025 139.79L104.052 140.67Z" fill="#407BFF"/>
<g opacity="0.5">
<path d="M101.655 179.804L100.796 161.46L104.234 179.294C103.396 179.469 102.543 179.644 101.655 179.804Z" fill="black"/>
<path d="M95.8969 174.152L96.1974 180.644C95.3798 180.749 94.5482 180.84 93.7026 180.916L95.8969 174.152Z" fill="black"/>
<path d="M109.244 178.092L105.68 161.46L111.739 177.394C110.977 177.617 110.139 177.855 109.244 178.092Z" fill="black"/>
<path d="M88.2518 169.498L88.4195 181.252C87.5111 181.28 86.5886 181.28 85.6592 181.273L88.2518 169.498Z" fill="black"/>
</g>
<path d="M129.727 131.215L128.182 130.334C127.602 130.006 126.897 129.978 126.289 130.257L123.458 131.571C122.326 132.095 121.523 133.137 121.292 134.366L121.152 135.128C123.612 136.756 127.477 136.708 127.477 136.708L128.581 136.812C129.559 136.91 130.398 136.253 130.503 135.303L130.74 133.123C130.824 132.368 130.419 131.606 129.727 131.215Z" fill="#B55B52"/>
<path d="M103.34 142.053L82.6127 146.19C81.7252 146.365 80.8726 145.75 80.7818 144.849C80.4603 141.634 78.6783 133.143 70.0898 113.5C70.0898 113.5 76.5679 107.14 89.9433 107.252C92.9692 107.28 95.7505 108.943 97.1761 111.613C99.4053 115.799 102.34 124.094 104.556 140.341C104.674 141.145 104.136 141.9 103.34 142.053Z" fill="#353640"/>
<path d="M87.113 107.329C87.8887 107.993 89.503 109.845 88.2521 113.094C88.2521 113.094 81.9348 110.04 77.3086 109.355C79.8733 108.391 83.1368 107.58 87.113 107.329Z" fill="#B55B52"/>
<path d="M69.9427 85.6376C69.9427 85.6376 70.1523 73.7297 67.0915 72.36C64.2333 71.0812 64.9321 75.7353 64.9321 75.7353C64.9321 75.7353 61.3332 68.8729 57.8251 69.6765C54.7993 70.3754 59.2228 74.9177 59.2228 74.9177C59.2228 74.9177 52.9334 72.1224 51.6546 74.1001C50.3757 76.0777 53.9816 78.4118 53.9816 78.4118C53.9816 78.4118 48.3911 78.6773 48.6217 81.0463C48.8523 83.4153 54.6805 83.5691 54.6805 83.5691C54.6805 83.5691 49.7538 84.5404 50.3687 87.3637C50.9488 90.0192 57.5875 88.7962 57.5875 88.7962C57.5875 88.7962 53.1361 89.8654 53.9747 92.2205C55.0229 95.1555 61.3123 92.479 61.3123 92.479C61.3123 92.479 58.0558 94.4357 59.2857 96.1129C61.4311 99.034 68.7407 90.2777 68.7407 90.2777L69.9427 85.6376Z" fill="#263238"/>
<path d="M72.7936 84.4707C72.7936 84.4707 68.7474 83.0731 67.3777 87.3708C65.8054 92.2905 71.1863 93.3527 71.1863 93.3527L72.7936 84.4707Z" fill="#407BFF"/>
<path d="M75.3936 99.0408C77.0008 101.997 79.4327 107.524 77.8814 110.124C77.8814 110.124 80.7675 108.964 88.0492 111.368C89.2581 108.293 87.6928 107.776 87.6928 107.776C83.9122 107.79 83.1784 105.204 83.0247 102.647L75.3936 99.0408Z" fill="#B55B52"/>
<path opacity="0.2" d="M78.5031 100.515L83.0245 102.654C83.0594 103.262 83.1293 103.863 83.2691 104.436C81.8644 104.569 79.5514 103.555 78.9713 102.207C78.6778 101.536 78.4961 100.865 78.5031 100.515Z" fill="black"/>
<path d="M71.1798 93.3459C73.3532 98.2166 74.1708 100.313 77.6649 102.067C82.92 104.702 88.4686 101.319 87.7978 95.9804C87.1968 91.1795 83.7376 84.0236 78.0842 83.5973C72.5146 83.178 69.0065 88.4821 71.1798 93.3459Z" fill="#B55B52"/>
<path d="M79.1389 92.6122C79.3067 93.0314 79.6561 93.297 79.9286 93.2131C80.2011 93.1293 80.285 92.717 80.1243 92.3047C79.9566 91.8854 79.6071 91.6198 79.3346 91.7037C79.0621 91.7875 78.9782 92.1929 79.1389 92.6122Z" fill="#263238"/>
<path d="M84.3735 90.7664C84.5412 91.1857 84.8906 91.4513 85.1632 91.3674C85.4357 91.2836 85.5195 90.8713 85.3588 90.459C85.1911 90.0397 84.8417 89.7741 84.5692 89.858C84.2966 89.9418 84.2058 90.3472 84.3735 90.7664Z" fill="#263238"/>
<path d="M84.457 89.9144L85.3375 89.3064C85.3375 89.3134 85.1349 90.2568 84.457 89.9144Z" fill="#263238"/>
<path d="M82.626 92.0388C82.626 92.0388 84.0376 93.6112 85.1557 94.2261C84.8133 94.911 83.786 94.9739 83.786 94.9739L82.626 92.0388Z" fill="#A02724"/>
<path d="M83.4721 97.8672C83.7027 97.8393 83.9403 97.7834 84.1919 97.7065C84.2617 97.6855 84.2897 97.6157 84.2617 97.5458C84.2338 97.4759 84.1639 97.441 84.094 97.4619C82.2771 98.0419 80.9144 97.0357 80.9004 97.0287C80.8445 96.9867 80.7606 96.9937 80.7187 97.0496C80.6768 97.1055 80.6908 97.1824 80.7467 97.2313C80.8026 97.2593 81.8997 98.0769 83.4721 97.8672Z" fill="#263238"/>
<path d="M76.0856 90.2774C76.1555 90.2634 76.2114 90.2215 76.2464 90.1586C76.7775 89.1802 77.7349 89.1313 77.7418 89.1313C77.8816 89.1243 77.9864 89.0055 77.9725 88.8658C77.9585 88.726 77.8257 88.6142 77.6859 88.6212C77.637 88.6212 76.4351 88.6771 75.7782 89.9C75.7153 90.0188 75.7642 90.1795 75.897 90.2494C75.9529 90.2844 76.0228 90.2913 76.0856 90.2774Z" fill="#263238"/>
<path d="M84.2056 87.3637C84.2685 87.3568 84.3314 87.3288 84.3733 87.2799C84.4572 87.1751 84.4362 87.0073 84.3244 86.9165C83.1643 85.9871 82.0253 86.2945 81.9763 86.3085C81.8436 86.3505 81.7667 86.4902 81.8156 86.623C81.8645 86.7558 82.0113 86.8396 82.151 86.7977C82.193 86.7837 83.0875 86.5601 84.0099 87.3008C84.0658 87.3498 84.1357 87.3707 84.2056 87.3637Z" fill="#263238"/>
<path d="M79.2227 91.7591L80.1032 91.1511C80.1032 91.1581 79.9005 92.1015 79.2227 91.7591Z" fill="#263238"/>
<path d="M74.0587 97.4962C74.0587 97.4962 76.8051 96.5458 72.7869 89.341C72.7869 89.341 76.0574 89.8441 74.9742 86.8042C74.9742 86.8042 78.7828 88.6561 77.9721 85.2808C77.9721 85.2808 80.8862 86.9091 80.8862 84.4073C80.8862 84.4073 83.4369 84.7008 83.2063 82.4855C82.9827 80.2703 70.8232 79.5715 69.3906 88.1949C69.3906 88.1949 66.19 92.9329 74.0587 97.4962Z" fill="#263238"/>
<path d="M71.0608 97.965C72.0042 98.7966 73.1922 99.1111 74.1496 99.0342C75.5961 98.9154 75.708 97.406 74.7995 96.232C73.9819 95.1698 72.2418 93.9538 71.0398 94.6596C69.8519 95.3445 69.9776 97.0147 71.0608 97.965Z" fill="#B55B52"/>
<path d="M85.8826 107.245C85.8826 107.245 88.8247 108.356 88.021 112.675C88.021 112.675 86.6583 110.103 76.8259 108.929L74.0586 110.809C74.0586 110.809 79.6492 114.471 83.7862 115.554C83.7862 115.554 83.2061 113.716 85.0371 112.081C85.0371 112.081 87.2942 112.717 88.4333 114.289C88.4333 114.289 89.3138 113.234 89.1391 110.529C89.1391 110.529 90.8862 110.795 91.585 113.415C91.585 113.415 92.6542 111.661 89.9358 107.252L85.8826 107.245Z" fill="#407BFF"/>
<path opacity="0.7" d="M85.8826 107.245C85.8826 107.245 88.8247 108.356 88.021 112.675C88.021 112.675 86.6583 110.103 76.8259 108.929L74.0586 110.809C74.0586 110.809 79.6492 114.471 83.7862 115.554C83.7862 115.554 83.2061 113.716 85.0371 112.081C85.0371 112.081 87.2942 112.717 88.4333 114.289C88.4333 114.289 89.3138 113.234 89.1391 110.529C89.1391 110.529 90.8862 110.795 91.585 113.415C91.585 113.415 92.6542 111.661 89.9358 107.252L85.8826 107.245Z" fill="white"/>
<path d="M34.3517 252.831C34.4076 252.817 41.1442 251.42 67.8811 251.42C71.7036 251.42 83.2901 249.938 85.8547 247.01C97.9723 233.216 92.3328 189.854 88.9645 163.949C88.077 157.142 87.3782 151.768 87.3782 149.434C87.3782 147.617 88.0001 146.24 89.2789 145.213C93.8213 141.565 105.268 143.082 109.293 143.976L110.048 140.566C109.391 140.419 93.8562 137.058 87.0916 142.495C84.9602 144.2 83.8841 146.541 83.8841 149.441C83.8841 151.999 84.5619 157.198 85.4983 164.403C88.5731 188.065 94.3035 232.104 83.2342 244.711C81.3334 246.878 70.6973 247.933 67.8811 247.933C40.5013 247.933 33.8486 249.372 33.583 249.428L34.3517 252.831Z" fill="#407BFF"/>
<g opacity="0.7">
<path d="M34.3517 252.831C34.4076 252.817 41.1442 251.42 67.8811 251.42C71.7036 251.42 83.2901 249.938 85.8547 247.01C97.9723 233.216 92.3328 189.854 88.9645 163.949C88.077 157.142 87.3782 151.768 87.3782 149.434C87.3782 147.617 88.0001 146.24 89.2789 145.213C93.8213 141.565 105.268 143.082 109.293 143.976L110.048 140.566C109.391 140.419 93.8562 137.058 87.0916 142.495C84.9602 144.2 83.8841 146.541 83.8841 149.441C83.8841 151.999 84.5619 157.198 85.4983 164.403C88.5731 188.065 94.3035 232.104 83.2342 244.711C81.3334 246.878 70.6973 247.933 67.8811 247.933C40.5013 247.933 33.8486 249.372 33.583 249.428L34.3517 252.831Z" fill="white"/>
</g>
<path d="M127.951 129.965V138.728V143.172V151.935L94.9182 146.757C93.3389 146.513 92.1719 145.15 92.1719 143.55V143.172V138.728V138.35C92.1719 136.75 93.3389 135.387 94.9182 135.143L127.951 129.965Z" fill="#407BFF"/>
<path opacity="0.4" d="M127.951 129.965V138.728V143.172V151.935L94.9182 146.757C93.3389 146.513 92.1719 145.15 92.1719 143.55V143.172V138.728V138.35C92.1719 136.75 93.3389 135.387 94.9182 135.143L127.951 129.965Z" fill="white"/>
<path opacity="0.2" d="M94.9182 143.919L127.951 149.098V151.935L94.9182 146.756C93.3389 146.512 92.1719 145.149 92.1719 143.549V143.172V140.712C92.1789 142.305 93.3389 143.668 94.9182 143.919Z" fill="#263238"/>
<path d="M129.342 128.098H147.539V139.755H113.646V133.78L129.342 128.098Z" fill="#407BFF"/>
<path opacity="0.6" d="M129.342 128.098H147.539V139.755H113.646V133.78L129.342 128.098Z" fill="white"/>
<path d="M131.844 152.229L147.539 146.547V128.098L131.844 133.78V152.229Z" fill="#407BFF"/>
<path opacity="0.4" d="M131.844 152.229L147.539 146.547V128.098L131.844 133.78V152.229Z" fill="white"/>
<path d="M113.654 152.229H131.845V133.78H113.654V152.229Z" fill="#407BFF"/>
<path opacity="0.2" d="M113.654 152.229H131.845V133.78H113.654V152.229Z" fill="white"/>
<path d="M144.059 129.363C143.514 127.183 141.872 125.596 139.929 125.596H136.63C134.24 125.596 132.305 127.986 132.305 130.942C132.305 131.432 132.361 131.907 132.465 132.361H135.771L144.059 129.363Z" fill="#407BFF"/>
<path opacity="0.6" d="M144.059 129.363C143.514 127.183 141.872 125.596 139.929 125.596H136.63C134.24 125.596 132.305 127.986 132.305 130.942C132.305 131.432 132.361 131.907 132.465 132.361H135.771L144.059 129.363Z" fill="white"/>
<path d="M135.771 132.368L144.059 129.363C143.514 127.183 141.872 125.596 139.929 125.596C137.539 125.596 135.604 127.986 135.604 130.942C135.604 131.432 135.659 131.907 135.764 132.361H135.771V132.368Z" fill="#407BFF"/>
<path opacity="0.4" d="M135.771 132.368L144.059 129.363C143.514 127.183 141.872 125.596 139.929 125.596C137.539 125.596 135.604 127.986 135.604 130.942C135.604 131.432 135.659 131.907 135.764 132.361H135.771V132.368Z" fill="white"/>
<path d="M142.648 131.914V129.719C142.284 128.273 141.194 127.218 139.901 127.218C138.315 127.218 137.022 128.811 137.022 130.768V133.947L133.766 135.128V149.489L145.618 145.198V130.837L142.648 131.914Z" fill="#263238"/>
<path d="M133.766 136.023H158.106V142.382H133.766V139.119V136.023Z" fill="#263238"/>
<path opacity="0.8" d="M133.766 136.023H158.106V142.382H133.766V139.119V136.023Z" fill="white"/>
<path d="M149.538 149.189L158.106 146.086V136.023L149.538 139.119V149.189Z" fill="#263238"/>
<path d="M133.763 149.194H149.535V139.124H133.763V149.194Z" fill="#263238"/>
<path opacity="0.4" d="M133.763 149.194H149.535V139.124H133.763V149.194Z" fill="white"/>
<path opacity="0.6" d="M149.538 149.189L158.106 146.086V136.023L149.538 139.119V149.189Z" fill="white"/>
<path d="M150.894 148.7L156.743 146.582V143.745L150.894 145.862V148.7Z" fill="#407BFF"/>
<path d="M137.574 128.678C137.225 129.265 137.015 129.985 137.015 130.775V132.557L149.307 136.547L153.843 135.359V133.962L137.574 128.678Z" fill="#263238"/>
<path opacity="0.8" d="M137.574 128.678C137.225 129.265 137.015 129.985 137.015 130.775V132.557L149.307 136.547L153.843 135.359V133.962L137.574 128.678Z" fill="white"/>
<path d="M153.85 133.954L148.923 135.736V138.084L153.85 136.302V133.954Z" fill="#263238"/>
<path opacity="0.6" d="M153.85 133.954L148.923 135.736V138.084L153.85 136.302V133.954Z" fill="white"/>
<path d="M137.023 131.879V133.947L136.617 134.094L148.923 138.084V135.736L137.023 131.879Z" fill="#263238"/>
<path opacity="0.4" d="M137.023 131.879V133.947L136.617 134.094L148.923 138.084V135.736L137.023 131.879Z" fill="white"/>
<path d="M96.1765 134.808L94.7928 133.69C94.2757 133.27 93.5838 133.131 92.9409 133.305L89.936 134.144C88.734 134.479 87.7696 135.381 87.3504 136.555L87.0918 137.282C89.2581 139.287 93.0807 139.86 93.0807 139.86L94.1499 140.147C95.1003 140.398 96.0367 139.888 96.2953 138.966L96.8823 136.848C97.0779 136.128 96.7984 135.311 96.1765 134.808Z" fill="#B55B52"/>
<path d="M67.5805 119.748C66.8468 122.893 66.3786 125.891 66.2667 129.182C66.2178 130.831 66.2388 132.495 66.6162 134.479C66.721 134.982 66.8607 135.5 67.0704 136.08C67.294 136.66 67.5666 137.296 68.1046 138.001C68.6986 138.777 69.3485 139.259 69.9356 139.616C70.5296 139.965 71.0816 140.189 71.5987 140.37C72.64 140.706 73.5554 140.853 74.4429 140.95C75.3235 141.041 76.169 141.083 76.9866 141.076C78.6289 141.055 80.2012 140.943 81.7526 140.741C84.8554 140.342 87.8114 139.727 90.7953 138.847C91.8226 138.539 92.4096 137.463 92.1021 136.436C91.8505 135.583 91.0609 135.031 90.2083 135.052H90.1454C87.2593 135.108 84.3103 135.157 81.4801 135.059C80.0615 134.996 78.6638 134.927 77.343 134.745C76.6862 134.654 76.0432 134.563 75.4562 134.423C74.8762 134.291 74.3381 134.123 73.9817 133.941C73.6183 133.801 73.4856 133.543 73.821 133.864C73.9817 134.067 73.828 133.69 73.807 133.235C73.7022 132.278 73.7791 130.95 73.8979 129.643C74.0306 128.316 74.2193 126.946 74.4429 125.569C74.6386 124.2 74.9321 122.76 75.1627 121.467L75.1907 121.314C75.568 119.203 74.1634 117.184 72.053 116.806C70.0054 116.436 68.0487 117.75 67.5805 119.748Z" fill="#B55B52"/>
<path d="M75.3794 127.197C75.3794 127.197 69.9006 127.26 65.7846 124.731C65.7846 124.731 65.6378 115.674 70.9139 112.732C76.19 109.79 75.3794 127.197 75.3794 127.197Z" fill="#407BFF"/>
<path opacity="0.2" d="M75.3794 127.197C75.3794 127.197 69.9006 127.26 65.7846 124.731C65.7846 124.731 65.6378 115.674 70.9139 112.732C76.19 109.79 75.3794 127.197 75.3794 127.197Z" fill="black"/>
<path d="M67.9021 123.892L68.6918 126.338L69.6002 124.29C71.3054 124.633 73.5066 124.933 76.2879 125.024L76.2949 128.211C76.2949 128.211 70.5716 128.546 64.8203 125.464L64.8553 122.739C64.8692 122.746 65.7987 123.319 67.9021 123.892Z" fill="#407BFF"/>
<path opacity="0.7" d="M67.9021 123.892L68.6918 126.338L69.6002 124.29C71.3054 124.633 73.5066 124.933 76.2879 125.024L76.2949 128.211C76.2949 128.211 70.5716 128.546 64.8203 125.464L64.8553 122.739C64.8692 122.746 65.7987 123.319 67.9021 123.892Z" fill="white"/>
</svg>
