<svg width="56" height="55" viewBox="0 0 56 55" fill="none" xmlns="http://www.w3.org/2000/svg">
<path d="M44.7104 33.2063L42.4188 29.4021C41.9375 28.5542 41.5021 26.95 41.5021 26.0105V20.2125C41.5021 14.8271 38.3396 10.175 33.7792 7.99796C32.5875 5.88962 30.3875 4.58337 27.8667 4.58337C25.3688 4.58337 23.1229 5.93546 21.9313 8.06671C17.4625 10.2896 14.3688 14.8959 14.3688 20.2125V26.0105C14.3688 26.95 13.9333 28.5542 13.4521 29.3792L11.1375 33.2063C10.2208 34.7417 10.0146 36.4375 10.5875 37.9959C11.1375 39.5313 12.4438 40.723 14.1396 41.2959C18.5854 42.8084 23.2604 43.5417 27.9354 43.5417C32.6104 43.5417 37.2854 42.8084 41.7313 41.3188C43.3354 40.7917 44.5729 39.5771 45.1688 37.9959C45.7646 36.4146 45.6042 34.673 44.7104 33.2063Z" fill="#191E31"/>
<path d="M34.3752 45.8563C33.4127 48.5146 30.8689 50.4167 27.8897 50.4167C26.0793 50.4167 24.2918 49.6834 23.0314 48.3771C22.2981 47.6896 21.7481 46.773 21.4272 45.8334C21.7252 45.8792 22.0231 45.9021 22.3439 45.948C22.871 46.0167 23.421 46.0855 23.971 46.1313C25.2772 46.2459 26.6064 46.3146 27.9356 46.3146C29.2418 46.3146 30.5481 46.2459 31.8314 46.1313C32.3127 46.0855 32.7939 46.0625 33.2522 45.9938C33.6189 45.948 33.9856 45.9021 34.3752 45.8563Z" fill="#191E31"/>
<path d="M41.3896 17.75C44.013 17.75 46.1396 15.6234 46.1396 13C46.1396 10.3766 44.013 8.25 41.3896 8.25C38.7663 8.25 36.6396 10.3766 36.6396 13C36.6396 15.6234 38.7663 17.75 41.3896 17.75Z" fill="#FF1E20" stroke="#F9F9F9" stroke-width="1.5" stroke-linecap="round" stroke-linejoin="round"/>
</svg>
