<svg width="28" height="48" viewBox="0 0 28 48" fill="none" xmlns="http://www.w3.org/2000/svg">
<path d="M14.2094 28.4728C14.8927 28.4728 15.4467 27.9189 15.4467 27.2355C15.4467 26.5522 14.8927 25.9983 14.2094 25.9983C13.5261 25.9983 12.9722 26.5522 12.9722 27.2355C12.9722 27.9189 13.5261 28.4728 14.2094 28.4728Z" fill="#29323B"/>
<path d="M18.9763 22.537V21.5881C18.9763 19.5387 18.4829 16.8213 14.2094 16.8213C9.93596 16.8213 9.44257 19.5387 9.44257 21.5881V22.537C7.31722 22.8026 6.6189 23.8805 6.6189 26.5296V27.9414C6.6189 31.0535 7.56771 32.0023 10.6798 32.0023H17.739C20.8511 32.0023 21.8 31.0535 21.8 27.9414V26.5296C21.8 23.8805 21.1016 22.8026 18.9763 22.537ZM14.2094 29.5278C12.9418 29.5278 11.9171 28.4955 11.9171 27.2355C11.9171 25.9679 12.9494 24.9432 14.2094 24.9432C15.4695 24.9432 16.5018 25.9755 16.5018 27.2355C16.5018 28.5031 15.477 29.5278 14.2094 29.5278ZM10.6798 22.4686C10.6191 22.4686 10.566 22.4686 10.5052 22.4686V21.5881C10.5052 19.3641 11.1353 17.884 14.2094 17.884C17.2836 17.884 17.9136 19.3641 17.9136 21.5881V22.4762C17.8529 22.4762 17.7997 22.4762 17.739 22.4762H10.6798V22.4686Z" fill="#29323B"/>
<path d="M24.4707 0H3.21954C1.44907 0 0 1.4477 0 3.21954V44.4458C0 46.2176 1.44907 47.6667 3.21954 47.6667H24.4707C26.2412 47.6667 27.6902 46.2203 27.6902 44.4471V3.21954C27.6902 1.4477 26.2412 0 24.4707 0ZM10.4458 2.32069H17.2444C17.4596 2.32069 17.6339 2.49501 17.6339 2.71155C17.6339 2.92673 17.4596 3.10106 17.2444 3.10106H10.4458C10.2306 3.10106 10.0563 2.92673 10.0563 2.71155C10.0563 2.49501 10.2306 2.32069 10.4458 2.32069ZM13.8451 46.0569C12.9558 46.0569 12.2354 45.3364 12.2354 44.4458C12.2354 43.5551 12.9558 42.836 13.8451 42.836C14.7344 42.836 15.4549 43.5551 15.4549 44.4458C15.4549 45.3364 14.7344 46.0569 13.8451 46.0569ZM25.4499 41.7083H2.24033V5.10578H25.4499V41.7083Z" fill="#29323B"/>
</svg>
