<svg width="444" height="180" viewBox="0 0 444 180" fill="none" xmlns="http://www.w3.org/2000/svg">
<path d="M308.21 65.1684H308.207C308.255 63.5702 307.713 62.0103 306.686 60.7868C305.658 59.5633 304.216 58.7621 302.636 58.5362L253.889 51.4407C252.846 51.2889 251.855 50.8852 251.002 50.2646C250.15 49.6439 249.46 48.8248 248.994 47.8779L227.194 3.63062C226.657 2.54082 225.826 1.62325 224.796 0.981652C223.765 0.340054 222.576 0 221.363 0C220.15 0 218.961 0.340054 217.93 0.981652C216.9 1.62325 216.069 2.54082 215.532 3.63062L193.732 47.8779C193.266 48.8248 192.576 49.6439 191.723 50.2646C190.87 50.8852 189.88 51.2889 188.837 51.4407L140.09 58.5362C138.509 58.7621 137.068 59.5633 136.04 60.7868C135.012 62.0103 134.471 63.5702 134.519 65.1684H134.516V78.5112H134.531C134.473 79.4403 134.617 80.3711 134.955 81.2384C135.292 82.1057 135.815 82.8887 136.486 83.5326L171.76 117.974C171.904 118.115 172.033 118.267 172.163 118.419L165.303 158.484C164.947 160.56 165.232 174.143 165.251 174.297C165.324 174.898 165.482 175.486 165.722 176.042C165.78 176.178 165.843 176.312 165.911 176.443C166.247 177.093 166.69 177.682 167.221 178.185C167.537 178.485 167.881 178.753 168.249 178.986C169.243 179.618 170.39 179.968 171.567 179.998C171.893 180.005 172.219 179.986 172.542 179.943C172.944 179.888 173.341 179.796 173.727 179.667C173.822 179.635 173.918 179.599 174.013 179.562C174.183 179.497 174.352 179.423 174.521 179.341C174.593 179.307 174.665 179.275 174.737 179.237L218.337 156.276C219.27 155.785 220.309 155.528 221.363 155.528C222.417 155.528 223.455 155.785 224.389 156.276L267.989 179.237C268.061 179.275 268.133 179.307 268.205 179.341C268.85 179.657 269.543 179.864 270.256 179.954C270.85 180.026 271.452 180.013 272.043 179.916C273.352 179.699 274.566 179.09 275.523 178.168C276.48 177.246 277.135 176.055 277.403 174.753C277.462 174.448 277.499 174.14 277.514 173.83C277.529 173.515 277.778 160.56 277.423 158.484L270.561 118.408C270.689 118.258 270.824 118.113 270.966 117.974L306.24 83.5326C306.911 82.8885 307.433 82.1055 307.771 81.2382C308.108 80.3709 308.253 79.4402 308.194 78.5112H308.21V65.1684Z" fill="url(#paint0_linear_443_1607)"/>
<path d="M227.193 3.63062L248.993 47.8779C249.46 48.8248 250.149 49.6439 251.002 50.2646C251.855 50.8852 252.846 51.2889 253.889 51.4407L302.636 58.5362C303.836 58.7109 304.964 59.2187 305.892 60.002C306.819 60.7854 307.51 61.813 307.885 62.9688C308.259 64.1247 308.304 65.3625 308.013 66.5424C307.723 67.7222 307.108 68.7971 306.239 69.6453L270.966 104.087C270.211 104.824 269.646 105.734 269.32 106.738C268.995 107.743 268.918 108.811 269.096 109.852L277.423 158.484C277.628 159.682 277.494 160.913 277.037 162.039C276.58 163.165 275.818 164.14 274.836 164.854C273.855 165.569 272.693 165.994 271.483 166.081C270.273 166.169 269.063 165.916 267.989 165.35L224.388 142.389C223.455 141.898 222.417 141.641 221.363 141.641C220.308 141.641 219.27 141.898 218.337 142.389L174.736 165.35C173.663 165.916 172.452 166.169 171.242 166.081C170.032 165.994 168.871 165.569 167.889 164.854C166.908 164.14 166.145 163.165 165.688 162.039C165.231 160.913 165.097 159.682 165.302 158.484L173.629 109.852C173.808 108.811 173.731 107.743 173.405 106.738C173.079 105.734 172.514 104.824 171.76 104.087L136.486 69.6453C135.617 68.7971 135.003 67.7222 134.712 66.5424C134.421 65.3625 134.466 64.1247 134.841 62.9688C135.216 61.813 135.906 60.7854 136.833 60.002C137.761 59.2187 138.889 58.7109 140.089 58.5362L188.836 51.4407C189.88 51.2889 190.87 50.8852 191.723 50.2646C192.576 49.6439 193.265 48.8248 193.732 47.8779L215.532 3.63062C216.069 2.54082 216.9 1.62325 217.93 0.981652C218.96 0.340054 220.149 0 221.363 0C222.576 0 223.765 0.340054 224.795 0.981652C225.826 1.62325 226.656 2.54082 227.193 3.63062Z" fill="url(#paint1_linear_443_1607)"/>
<path d="M271.016 159.761C270.593 159.758 270.177 159.65 269.805 159.448L226.204 136.487C224.711 135.701 223.05 135.29 221.363 135.29C219.676 135.29 218.015 135.701 216.522 136.487L172.921 159.448C172.549 159.65 172.133 159.758 171.71 159.761C171.326 159.755 170.947 159.666 170.6 159.5C170.252 159.334 169.945 159.095 169.699 158.799C169.455 158.513 169.28 158.176 169.185 157.813C169.089 157.45 169.077 157.07 169.149 156.702L177.476 108.07C177.761 106.404 177.638 104.695 177.116 103.088C176.595 101.481 175.692 100.025 174.484 98.8457L139.21 64.4038C138.862 64.0646 138.617 63.6347 138.501 63.1629C138.384 62.691 138.402 62.196 138.552 61.7338C138.702 61.2717 138.978 60.8607 139.349 60.5475C139.72 60.2343 140.171 60.0312 140.651 59.9614L189.398 52.8659C191.067 52.6232 192.652 51.9773 194.017 50.9841C195.382 49.9909 196.485 48.6801 197.231 47.1647L219.032 2.91768C219.246 2.48187 219.578 2.11493 219.99 1.85835C220.402 1.60177 220.878 1.46582 221.363 1.46582C221.848 1.46582 222.324 1.60177 222.736 1.85835C223.148 2.11493 223.48 2.48187 223.695 2.91768L245.495 47.165C246.241 48.6803 247.345 49.991 248.709 50.9842C250.074 51.9774 251.659 52.6232 253.328 52.8659L302.075 59.9614C302.555 60.0312 303.006 60.2343 303.377 60.5475C303.748 60.8607 304.024 61.2717 304.174 61.7339C304.324 62.1961 304.342 62.6911 304.226 63.1629C304.11 63.6347 303.864 64.0646 303.516 64.4038L268.243 98.8457C267.035 100.025 266.131 101.481 265.61 103.087C265.089 104.694 264.965 106.404 265.25 108.069L273.578 156.702C273.649 157.071 273.637 157.45 273.542 157.814C273.446 158.177 273.271 158.513 273.028 158.799C272.781 159.095 272.474 159.334 272.127 159.5C271.78 159.666 271.401 159.755 271.016 159.761Z" fill="url(#paint2_linear_443_1607)"/>
<g style="mix-blend-mode:multiply">
<path d="M306.239 69.645C307.108 68.7967 307.723 67.7219 308.013 66.542C308.304 65.3621 308.26 64.1243 307.885 62.9685C307.51 61.8127 306.82 60.785 305.892 60.0017C304.964 59.2183 303.837 58.7106 302.636 58.5358L260.854 52.4541C256.736 73.4213 245.506 92.3167 229.067 105.937C212.629 119.557 191.994 127.063 170.662 127.183L165.303 158.484C165.097 159.682 165.231 160.913 165.688 162.039C166.145 163.165 166.908 164.14 167.889 164.854C168.871 165.568 170.032 165.993 171.242 166.081C172.452 166.169 173.663 165.915 174.737 165.35L218.337 142.389C219.27 141.897 220.309 141.641 221.363 141.641C222.417 141.641 223.455 141.897 224.388 142.389L267.989 165.35C269.063 165.915 270.273 166.169 271.483 166.081C272.693 165.993 273.855 165.568 274.836 164.854C275.818 164.14 276.58 163.165 277.037 162.039C277.494 160.913 277.628 159.682 277.423 158.484L269.096 109.851C268.918 108.811 268.995 107.742 269.321 106.738C269.646 105.734 270.211 104.824 270.966 104.087L306.239 69.645Z" fill="#FFF1D2"/>
</g>
<path d="M139.105 122.584H139.103C139.127 121.785 138.856 121.005 138.342 120.393C137.828 119.782 137.108 119.381 136.317 119.268L111.944 115.72C111.423 115.644 110.927 115.443 110.501 115.132C110.074 114.822 109.73 114.412 109.496 113.939L98.5962 91.8153C98.3277 91.2704 97.9125 90.8116 97.3973 90.4908C96.8821 90.17 96.2876 90 95.681 90C95.0744 90 94.4799 90.17 93.9647 90.4908C93.4495 90.8116 93.0342 91.2704 92.7657 91.8153L81.8656 113.939C81.6323 114.412 81.2876 114.822 80.8612 115.132C80.4347 115.443 79.9394 115.644 79.4178 115.72L55.0445 119.268C54.2544 119.381 53.5335 119.782 53.0196 120.393C52.5058 121.005 52.235 121.785 52.259 122.584H52.2573V129.256H52.2651C52.2358 129.72 52.3081 130.185 52.4769 130.619C52.6458 131.053 52.9071 131.444 53.2426 131.766L70.8795 148.987C70.9516 149.058 71.0163 149.134 71.0809 149.21L67.6509 169.242C67.4732 170.28 67.6157 177.072 67.6249 177.149C67.6614 177.449 67.7406 177.743 67.8603 178.021C67.8896 178.089 67.9213 178.156 67.9551 178.221C68.1232 178.546 68.3446 178.841 68.61 179.093C68.768 179.243 68.9402 179.377 69.1242 179.493C69.6212 179.809 70.1946 179.984 70.7832 179.999C70.9461 180.002 71.1089 179.993 71.2704 179.971C71.4717 179.944 71.6701 179.898 71.8628 179.833C71.9107 179.817 71.9585 179.799 72.0063 179.781C72.0912 179.748 72.1757 179.711 72.2599 179.671C72.2959 179.653 72.3321 179.638 72.368 179.619L94.1682 168.138C94.6348 167.892 95.1539 167.764 95.681 167.764C96.2081 167.764 96.7273 167.892 97.1938 168.138L118.994 179.619C119.03 179.638 119.066 179.653 119.102 179.671C119.425 179.829 119.771 179.932 120.128 179.977C120.425 180.013 120.726 180.007 121.021 179.958C121.676 179.85 122.283 179.545 122.761 179.084C123.239 178.623 123.567 178.028 123.701 177.376C123.731 177.224 123.749 177.07 123.757 176.915C123.764 176.758 123.889 170.28 123.711 169.242L120.28 149.204C120.344 149.129 120.411 149.057 120.483 148.987L138.119 131.766H138.119C138.455 131.444 138.716 131.053 138.885 130.619C139.054 130.185 139.126 129.72 139.096 129.256H139.105V122.584Z" fill="url(#paint3_linear_443_1607)"/>
<path d="M98.5956 91.8153L109.496 113.939C109.729 114.412 110.074 114.822 110.5 115.132C110.927 115.443 111.422 115.644 111.944 115.72L136.317 119.268C136.917 119.355 137.481 119.609 137.945 120.001C138.409 120.393 138.754 120.906 138.941 121.484C139.129 122.062 139.151 122.681 139.006 123.271C138.86 123.861 138.553 124.398 138.119 124.823L120.482 142.043C120.104 142.412 119.822 142.867 119.659 143.369C119.496 143.871 119.458 144.405 119.547 144.926L123.71 169.242C123.813 169.841 123.746 170.457 123.518 171.02C123.289 171.583 122.908 172.07 122.417 172.427C121.926 172.784 121.346 172.997 120.741 173.041C120.136 173.085 119.53 172.958 118.993 172.675L97.1931 161.195C96.7266 160.949 96.2074 160.82 95.6803 160.82C95.1533 160.82 94.6341 160.949 94.1676 161.195L72.3673 172.675C71.8304 172.958 71.2252 173.085 70.6201 173.041C70.0151 172.997 69.4344 172.784 68.9436 172.427C68.4529 172.07 68.0716 171.583 67.843 171.02C67.6145 170.457 67.5478 169.841 67.6503 169.242L71.8138 144.926C71.9028 144.405 71.8643 143.871 71.7014 143.369C71.5385 142.867 71.2562 142.412 70.8788 142.043L53.242 124.823C52.8076 124.398 52.5004 123.861 52.355 123.271C52.2096 122.681 52.2319 122.062 52.4194 121.484C52.6068 120.906 52.952 120.393 53.4158 120.001C53.8796 119.609 54.4435 119.355 55.0438 119.268L79.4171 115.72C79.9388 115.644 80.4341 115.443 80.8605 115.132C81.2869 114.822 81.6316 114.412 81.8649 113.939L92.7651 91.8153C93.0335 91.2704 93.4489 90.8116 93.9641 90.4908C94.4792 90.17 95.0737 90 95.6803 90C96.287 90 96.8815 90.17 97.3966 90.4908C97.9118 90.8116 98.3271 91.2704 98.5956 91.8153Z" fill="url(#paint4_linear_443_1607)"/>
<path d="M120.507 169.881C120.295 169.879 120.088 169.825 119.901 169.724L98.1011 158.244C97.3547 157.851 96.5239 157.645 95.6806 157.645C94.8372 157.645 94.0065 157.851 93.26 158.244L71.4597 169.724C71.2736 169.825 71.0657 169.879 70.854 169.881C70.6617 169.878 70.4723 169.833 70.2988 169.75C70.1252 169.667 69.9716 169.548 69.8483 169.4C69.7267 169.257 69.6388 169.089 69.5912 168.907C69.5436 168.725 69.5374 168.535 69.5732 168.351L73.7369 144.035C73.8796 143.203 73.8179 142.348 73.5572 141.544C73.2966 140.741 72.8449 140.013 72.2409 139.423L54.6039 122.202C54.4303 122.033 54.3074 121.818 54.2493 121.582C54.1911 121.346 54.2001 121.098 54.2751 120.867C54.3501 120.636 54.4881 120.431 54.6735 120.274C54.859 120.118 55.0845 120.016 55.3246 119.981L79.6979 116.433C80.5326 116.312 81.3252 115.989 82.0075 115.492C82.6899 114.996 83.2413 114.34 83.6144 113.583L94.5148 91.4593C94.6221 91.2414 94.7882 91.0579 94.9942 90.9296C95.2003 90.8014 95.438 90.7334 95.6806 90.7334C95.9231 90.7334 96.1609 90.8014 96.3669 90.9296C96.5729 91.0579 96.739 91.2414 96.8464 91.4593L107.747 113.583C108.12 114.341 108.671 114.996 109.354 115.493C110.036 115.989 110.829 116.312 111.663 116.433L136.036 119.981C136.277 120.016 136.502 120.118 136.688 120.274C136.873 120.431 137.011 120.636 137.086 120.867C137.161 121.098 137.17 121.346 137.112 121.582C137.054 121.818 136.931 122.033 136.757 122.202L119.12 139.423C118.516 140.013 118.065 140.741 117.804 141.544C117.543 142.348 117.482 143.202 117.624 144.035L121.788 168.351C121.824 168.536 121.817 168.726 121.77 168.907C121.722 169.089 121.634 169.257 121.513 169.4C121.39 169.548 121.236 169.667 121.062 169.75C120.889 169.834 120.699 169.878 120.507 169.881Z" fill="url(#paint5_linear_443_1607)"/>
<g style="mix-blend-mode:multiply">
<path d="M138.119 124.823C138.554 124.399 138.861 123.861 139.006 123.271C139.152 122.681 139.129 122.063 138.942 121.485C138.754 120.907 138.409 120.393 137.945 120.001C137.482 119.61 136.918 119.356 136.317 119.268L115.426 116.228C113.367 126.711 107.752 136.159 99.5332 142.969C91.3141 149.779 80.9967 153.532 70.3305 153.592L67.6508 169.243C67.5483 169.841 67.615 170.457 67.8436 171.02C68.0721 171.583 68.4534 172.07 68.9442 172.428C69.4349 172.785 70.0156 172.997 70.6206 173.041C71.2257 173.085 71.8309 172.958 72.3679 172.675L94.1681 161.195C94.6346 160.949 95.1538 160.821 95.6809 160.821C96.2079 160.821 96.7271 160.949 97.1936 161.195L118.994 172.675C119.531 172.958 120.136 173.085 120.741 173.041C121.346 172.997 121.927 172.785 122.418 172.428C122.908 172.07 123.29 171.583 123.518 171.02C123.747 170.457 123.813 169.841 123.711 169.243L119.547 144.926C119.458 144.406 119.497 143.872 119.66 143.369C119.823 142.867 120.105 142.412 120.482 142.044L138.119 124.823Z" fill="#FFF1D2"/>
</g>
<path d="M389.011 122.584H389.009C389.033 121.785 388.762 121.005 388.249 120.393C387.735 119.782 387.014 119.381 386.224 119.268L361.85 115.72C361.329 115.644 360.833 115.443 360.407 115.132C359.981 114.822 359.636 114.412 359.403 113.939L348.502 91.8153C348.234 91.2704 347.819 90.8116 347.303 90.4908C346.788 90.17 346.194 90 345.587 90C344.981 90 344.386 90.17 343.871 90.4908C343.356 90.8116 342.94 91.2704 342.672 91.8153L331.772 113.939C331.538 114.412 331.194 114.822 330.767 115.132C330.341 115.443 329.846 115.644 329.324 115.72L304.951 119.268C304.161 119.381 303.44 119.782 302.926 120.393C302.412 121.005 302.141 121.785 302.165 122.584H302.164V129.256H302.171C302.142 129.72 302.214 130.185 302.383 130.619C302.552 131.053 302.813 131.444 303.149 131.766L320.786 148.987C320.858 149.058 320.922 149.134 320.987 149.21L317.557 169.242C317.379 170.28 317.522 177.072 317.531 177.149C317.568 177.449 317.647 177.743 317.767 178.021C317.796 178.089 317.828 178.156 317.861 178.221C318.029 178.546 318.251 178.841 318.516 179.093C318.674 179.243 318.846 179.377 319.03 179.493C319.527 179.809 320.101 179.984 320.689 179.999C320.852 180.002 321.015 179.993 321.177 179.971C321.378 179.944 321.576 179.898 321.769 179.833C321.817 179.817 321.865 179.799 321.912 179.781C321.997 179.748 322.082 179.711 322.166 179.671C322.202 179.653 322.238 179.638 322.274 179.619L344.074 168.138C344.541 167.892 345.06 167.764 345.587 167.764C346.114 167.764 346.633 167.892 347.1 168.138L368.9 179.619C368.936 179.638 368.972 179.653 369.008 179.671C369.331 179.829 369.677 179.932 370.034 179.977C370.331 180.013 370.632 180.007 370.927 179.958C371.582 179.85 372.189 179.545 372.667 179.084C373.146 178.623 373.473 178.028 373.607 177.376C373.637 177.224 373.656 177.07 373.663 176.915C373.67 176.758 373.795 170.28 373.617 169.242L370.186 149.204C370.25 149.129 370.318 149.057 370.389 148.987L388.026 131.766C388.361 131.444 388.622 131.053 388.791 130.619C388.96 130.185 389.032 129.72 389.003 129.256H389.011V122.584Z" fill="url(#paint6_linear_443_1607)"/>
<path d="M348.502 91.8153L359.402 113.939C359.636 114.412 359.98 114.822 360.407 115.132C360.833 115.443 361.329 115.644 361.85 115.72L386.224 119.268C386.824 119.355 387.388 119.609 387.852 120.001C388.315 120.393 388.661 120.906 388.848 121.484C389.035 122.062 389.058 122.681 388.912 123.271C388.767 123.861 388.46 124.398 388.025 124.823L370.389 142.043C370.011 142.412 369.729 142.867 369.566 143.369C369.403 143.871 369.365 144.405 369.454 144.926L373.617 169.242C373.72 169.841 373.653 170.457 373.424 171.02C373.196 171.582 372.814 172.07 372.324 172.427C371.833 172.784 371.252 172.997 370.647 173.041C370.042 173.085 369.437 172.958 368.9 172.675L347.1 161.195C346.633 160.949 346.114 160.82 345.587 160.82C345.06 160.82 344.541 160.949 344.074 161.195L322.274 172.675C321.737 172.958 321.132 173.085 320.527 173.041C319.922 172.997 319.341 172.784 318.85 172.427C318.36 172.07 317.978 171.582 317.75 171.02C317.521 170.457 317.454 169.841 317.557 169.242L321.721 144.926C321.81 144.405 321.771 143.871 321.608 143.369C321.445 142.867 321.163 142.412 320.785 142.043L303.149 124.823C302.714 124.398 302.407 123.861 302.262 123.271C302.116 122.681 302.139 122.062 302.326 121.484C302.514 120.906 302.859 120.393 303.322 120.001C303.786 119.609 304.35 119.355 304.951 119.268L329.324 115.72C329.845 115.644 330.341 115.443 330.767 115.132C331.194 114.822 331.538 114.412 331.772 113.939L342.672 91.8153C342.94 91.2704 343.356 90.8116 343.871 90.4908C344.386 90.17 344.98 90 345.587 90C346.194 90 346.788 90.17 347.303 90.4908C347.818 90.8116 348.234 91.2704 348.502 91.8153Z" fill="url(#paint7_linear_443_1607)"/>
<path d="M370.413 169.881C370.202 169.879 369.994 169.826 369.808 169.724L348.007 158.244C347.261 157.851 346.43 157.645 345.587 157.645C344.743 157.645 343.913 157.851 343.166 158.244L321.366 169.724C321.18 169.825 320.972 169.879 320.76 169.881C320.568 169.878 320.379 169.834 320.205 169.75C320.031 169.667 319.878 169.548 319.755 169.4C319.633 169.257 319.545 169.089 319.498 168.907C319.45 168.726 319.444 168.536 319.479 168.351L323.643 144.035C323.786 143.203 323.724 142.348 323.464 141.544C323.203 140.741 322.751 140.013 322.147 139.423L304.51 122.202C304.336 122.033 304.214 121.818 304.156 121.582C304.097 121.346 304.106 121.098 304.181 120.867C304.256 120.636 304.394 120.431 304.58 120.274C304.765 120.118 304.991 120.016 305.231 119.981L329.604 116.433C330.439 116.312 331.231 115.989 331.914 115.493C332.596 114.996 333.148 114.341 333.521 113.583L344.421 91.4593C344.528 91.2414 344.694 91.0579 344.9 90.9297C345.106 90.8014 345.344 90.7334 345.587 90.7334C345.829 90.7334 346.067 90.8014 346.273 90.9297C346.479 91.0579 346.645 91.2414 346.753 91.4593L357.653 113.583C358.026 114.341 358.578 114.996 359.26 115.493C359.942 115.989 360.735 116.312 361.57 116.433L385.943 119.981C386.183 120.016 386.408 120.118 386.594 120.274C386.779 120.431 386.917 120.636 386.992 120.867C387.067 121.099 387.076 121.346 387.018 121.582C386.96 121.818 386.837 122.033 386.663 122.202L369.027 139.423C368.423 140.013 367.971 140.741 367.71 141.544C367.45 142.348 367.388 143.202 367.53 144.035L371.694 168.352C371.73 168.536 371.724 168.726 371.676 168.907C371.628 169.089 371.541 169.257 371.419 169.4C371.296 169.548 371.142 169.667 370.969 169.751C370.795 169.834 370.606 169.878 370.413 169.881Z" fill="url(#paint8_linear_443_1607)"/>
<g style="mix-blend-mode:multiply">
<path d="M388.025 124.823C388.46 124.399 388.767 123.861 388.912 123.271C389.058 122.681 389.036 122.063 388.848 121.485C388.661 120.907 388.315 120.393 387.852 120.001C387.388 119.61 386.824 119.356 386.224 119.268L365.333 116.228C363.274 126.711 357.659 136.159 349.439 142.969C341.22 149.779 330.903 153.532 320.237 153.592L317.557 169.243C317.454 169.841 317.521 170.457 317.75 171.02C317.978 171.583 318.36 172.07 318.85 172.428C319.341 172.785 319.922 172.997 320.527 173.041C321.132 173.085 321.737 172.958 322.274 172.675L344.074 161.195C344.541 160.949 345.06 160.821 345.587 160.821C346.114 160.821 346.633 160.949 347.1 161.195L368.9 172.675C369.437 172.958 370.042 173.085 370.647 173.041C371.252 172.997 371.833 172.785 372.324 172.428C372.815 172.07 373.196 171.583 373.424 171.02C373.653 170.457 373.72 169.841 373.617 169.243L369.454 144.926C369.365 144.406 369.403 143.872 369.566 143.369C369.729 142.867 370.011 142.412 370.389 142.044L388.025 124.823Z" fill="#FFF1D2"/>
</g>
<path d="M444 151.292H444C444.012 150.892 443.876 150.503 443.619 150.197C443.362 149.891 443.002 149.69 442.607 149.634L430.42 147.86C430.159 147.822 429.912 147.721 429.698 147.566C429.485 147.411 429.313 147.206 429.196 146.969L423.746 135.908C423.612 135.635 423.404 135.406 423.147 135.245C422.889 135.085 422.592 135 422.288 135C421.985 135 421.688 135.085 421.43 135.245C421.173 135.406 420.965 135.635 420.831 135.908L415.381 146.969C415.264 147.206 415.092 147.411 414.879 147.566C414.665 147.721 414.418 147.822 414.157 147.86L401.97 149.634C401.575 149.69 401.215 149.891 400.958 150.197C400.701 150.503 400.565 150.892 400.577 151.292H400.577V154.628H400.581C400.566 154.86 400.602 155.093 400.686 155.31C400.771 155.526 400.902 155.722 401.069 155.883L409.888 164.494C409.924 164.529 409.956 164.567 409.989 164.605L408.273 174.621C408.185 175.14 408.256 178.536 408.261 178.574C408.279 178.725 408.318 178.872 408.378 179.011C408.393 179.045 408.409 179.078 408.426 179.111C408.51 179.273 408.62 179.421 408.753 179.546C408.832 179.621 408.918 179.688 409.01 179.747C409.259 179.905 409.545 179.992 409.84 180C409.921 180.001 410.002 179.997 410.083 179.986C410.184 179.972 410.283 179.949 410.379 179.917C410.403 179.909 410.427 179.9 410.451 179.891C410.494 179.874 410.536 179.856 410.578 179.835C410.596 179.827 410.614 179.819 410.632 179.809L421.532 174.069C421.765 173.946 422.025 173.882 422.288 173.882C422.552 173.882 422.812 173.946 423.045 174.069L433.945 179.809C433.963 179.819 433.981 179.827 433.999 179.835C434.16 179.914 434.334 179.966 434.512 179.988C434.66 180.006 434.811 180.003 434.958 179.979C435.286 179.925 435.589 179.772 435.828 179.542C436.068 179.312 436.232 179.014 436.298 178.688C436.313 178.612 436.323 178.535 436.326 178.458C436.33 178.379 436.392 175.14 436.303 174.621L434.588 164.602C434.62 164.564 434.654 164.528 434.689 164.494L443.508 155.883C443.675 155.722 443.806 155.526 443.89 155.31C443.975 155.093 444.011 154.86 443.996 154.628H444V151.292Z" fill="url(#paint9_linear_443_1607)"/>
<path d="M423.746 135.908L429.196 146.969C429.313 147.206 429.485 147.411 429.699 147.566C429.912 147.721 430.159 147.822 430.42 147.86L442.607 149.634C442.907 149.678 443.189 149.805 443.421 150.001C443.653 150.196 443.825 150.453 443.919 150.742C444.013 151.031 444.024 151.341 443.951 151.636C443.879 151.931 443.725 152.199 443.508 152.411L434.689 161.022C434.501 161.206 434.359 161.433 434.278 161.685C434.197 161.936 434.177 162.203 434.222 162.463L436.304 174.621C436.355 174.92 436.322 175.228 436.207 175.51C436.093 175.791 435.902 176.035 435.657 176.214C435.412 176.392 435.121 176.498 434.819 176.52C434.516 176.542 434.214 176.479 433.945 176.338L423.045 170.597C422.812 170.474 422.552 170.41 422.289 170.41C422.025 170.41 421.766 170.474 421.532 170.597L410.632 176.338C410.364 176.479 410.061 176.542 409.759 176.52C409.456 176.498 409.166 176.392 408.92 176.214C408.675 176.035 408.484 175.791 408.37 175.51C408.256 175.228 408.222 174.92 408.274 174.621L410.355 162.463C410.4 162.203 410.381 161.936 410.299 161.685C410.218 161.433 410.077 161.206 409.888 161.022L401.07 152.411C400.852 152.199 400.699 151.931 400.626 151.636C400.553 151.341 400.564 151.031 400.658 150.742C400.752 150.453 400.924 150.196 401.156 150.001C401.388 149.805 401.67 149.678 401.97 149.634L414.157 147.86C414.418 147.822 414.666 147.721 414.879 147.566C415.092 147.411 415.264 147.206 415.381 146.969L420.831 135.908C420.965 135.635 421.173 135.406 421.431 135.245C421.688 135.085 421.985 135 422.289 135C422.592 135 422.889 135.085 423.147 135.245C423.404 135.406 423.612 135.635 423.746 135.908Z" fill="url(#paint10_linear_443_1607)"/>
<path d="M434.702 174.94C434.596 174.939 434.492 174.912 434.399 174.862L423.499 169.121C423.126 168.925 422.71 168.822 422.289 168.822C421.867 168.822 421.452 168.925 421.078 169.121L410.178 174.862C410.085 174.912 409.981 174.939 409.875 174.94C409.779 174.939 409.685 174.916 409.598 174.875C409.511 174.833 409.434 174.773 409.373 174.7C409.312 174.628 409.268 174.544 409.244 174.453C409.22 174.362 409.217 174.267 409.235 174.175L411.317 162.017C411.388 161.601 411.357 161.173 411.227 160.772C411.097 160.37 410.871 160.006 410.569 159.711L401.75 151.101C401.664 151.016 401.602 150.908 401.573 150.791C401.544 150.673 401.549 150.549 401.586 150.433C401.624 150.318 401.693 150.215 401.785 150.137C401.878 150.058 401.991 150.008 402.111 149.99L414.298 148.216C414.715 148.156 415.111 147.994 415.452 147.746C415.793 147.497 416.069 147.17 416.256 146.791L421.706 135.729C421.76 135.62 421.843 135.528 421.946 135.464C422.049 135.4 422.167 135.366 422.289 135.366C422.41 135.366 422.529 135.4 422.632 135.464C422.735 135.528 422.818 135.62 422.872 135.729L428.322 146.791C428.508 147.17 428.784 147.497 429.125 147.746C429.466 147.994 429.863 148.156 430.28 148.216L442.467 149.99C442.587 150.008 442.7 150.058 442.792 150.137C442.885 150.215 442.954 150.318 442.992 150.433C443.029 150.549 443.033 150.673 443.004 150.791C442.975 150.908 442.914 151.016 442.827 151.101L434.009 159.711C433.707 160.006 433.481 160.37 433.35 160.772C433.22 161.173 433.189 161.601 433.261 162.017L435.342 174.175C435.36 174.267 435.357 174.362 435.333 174.453C435.31 174.544 435.266 174.628 435.205 174.7C435.143 174.773 435.066 174.833 434.98 174.875C434.893 174.916 434.798 174.939 434.702 174.94Z" fill="url(#paint11_linear_443_1607)"/>
<g style="mix-blend-mode:multiply">
<path d="M443.508 152.411C443.725 152.199 443.878 151.93 443.951 151.635C444.024 151.34 444.013 151.031 443.919 150.742C443.825 150.453 443.653 150.196 443.421 150C443.189 149.804 442.907 149.677 442.607 149.634L432.161 148.113C431.132 153.355 428.324 158.079 424.215 161.484C420.105 164.889 414.946 166.765 409.613 166.795L408.273 174.621C408.222 174.92 408.256 175.228 408.37 175.509C408.484 175.791 408.675 176.035 408.92 176.213C409.165 176.392 409.456 176.498 409.758 176.52C410.061 176.542 410.363 176.479 410.632 176.337L421.532 170.597C421.765 170.474 422.025 170.41 422.288 170.41C422.552 170.41 422.812 170.474 423.045 170.597L433.945 176.337C434.213 176.479 434.516 176.542 434.819 176.52C435.121 176.498 435.411 176.392 435.657 176.213C435.902 176.035 436.093 175.791 436.207 175.509C436.321 175.228 436.355 174.92 436.303 174.621L434.222 162.463C434.177 162.202 434.196 161.935 434.278 161.684C434.359 161.433 434.5 161.206 434.689 161.021L443.508 152.411Z" fill="#FFF1D2"/>
</g>
<path d="M43.4236 151.292H43.4228C43.4348 150.892 43.2994 150.503 43.0425 150.197C42.7856 149.891 42.4252 149.69 42.0301 149.634L29.8434 147.86C29.5826 147.822 29.3349 147.721 29.1217 147.566C28.9085 147.411 28.7361 147.206 28.6195 146.969L23.1695 135.908C23.0352 135.635 22.8276 135.406 22.57 135.245C22.3124 135.085 22.0151 135 21.7118 135C21.4085 135 21.1112 135.085 20.8536 135.245C20.596 135.406 20.3884 135.635 20.2541 135.908L14.8041 146.969C14.6875 147.206 14.5151 147.411 14.3019 147.566C14.0887 147.721 13.841 147.822 13.5802 147.86L1.39347 149.634C0.99842 149.69 0.638002 149.891 0.381092 150.197C0.124181 150.503 -0.0112134 150.892 0.000809934 151.292H0V154.628H0.00390881C-0.0108031 154.86 0.02532 155.093 0.109728 155.31C0.194137 155.526 0.32482 155.722 0.492616 155.883L9.311 164.494C9.34712 164.529 9.37944 164.567 9.41175 164.605L7.6968 174.621C7.60795 175.14 7.67916 178.536 7.68377 178.574C7.70199 178.725 7.74161 178.872 7.80146 179.011C7.81608 179.045 7.83189 179.078 7.8489 179.111C7.93293 179.273 8.04358 179.421 8.17625 179.546C8.25528 179.621 8.34139 179.688 8.43335 179.747C8.68188 179.905 8.96861 179.992 9.2629 180C9.34433 180.001 9.42576 179.997 9.50648 179.986C9.60717 179.972 9.70637 179.949 9.8027 179.917C9.8267 179.909 9.85059 179.9 9.87436 179.891C9.91683 179.874 9.95912 179.856 10.0013 179.835C10.0193 179.827 10.0374 179.819 10.0553 179.809L20.9554 174.069C21.1886 173.946 21.4482 173.882 21.7118 173.882C21.9754 173.882 22.235 173.946 22.4682 174.069L33.3683 179.809C33.3862 179.819 33.4043 179.827 33.4223 179.835C33.5836 179.914 33.7569 179.966 33.9351 179.988C34.0836 180.006 34.234 180.003 34.3817 179.979C34.7091 179.925 35.0125 179.772 35.2517 179.542C35.491 179.312 35.6549 179.014 35.7218 178.688C35.7366 178.612 35.7459 178.535 35.7496 178.458C35.7534 178.379 35.8156 175.14 35.7268 174.621L34.0113 164.602C34.0432 164.564 34.0769 164.528 34.1126 164.494L42.931 155.883C43.0987 155.722 43.2293 155.526 43.3137 155.31C43.3981 155.093 43.4342 154.86 43.4195 154.628H43.4236V151.292Z" fill="url(#paint12_linear_443_1607)"/>
<path d="M23.1692 135.908L28.6193 146.969C28.7359 147.206 28.9082 147.411 29.1214 147.566C29.3346 147.721 29.5822 147.822 29.843 147.86L42.0299 149.634C42.33 149.678 42.612 149.805 42.8439 150.001C43.0758 150.196 43.2483 150.453 43.342 150.742C43.4358 151.031 43.4469 151.341 43.3742 151.636C43.3015 151.931 43.1479 152.199 42.9307 152.411L34.1123 161.022C33.9236 161.206 33.7824 161.433 33.701 161.685C33.6196 161.936 33.6003 162.203 33.6449 162.463L35.7265 174.621C35.7778 174.92 35.7444 175.228 35.6301 175.51C35.5159 175.791 35.3252 176.035 35.0799 176.214C34.8345 176.392 34.5441 176.498 34.2416 176.52C33.9391 176.542 33.6365 176.479 33.368 176.338L22.468 170.597C22.2347 170.474 21.9751 170.41 21.7115 170.41C21.448 170.41 21.1884 170.474 20.9551 170.597L10.055 176.338C9.78654 176.479 9.48396 176.542 9.18144 176.52C8.87892 176.498 8.58854 176.392 8.34316 176.214C8.09778 176.035 7.90717 175.791 7.7929 175.51C7.67863 175.228 7.64527 174.92 7.69655 174.621L9.77819 162.463C9.82275 162.203 9.80349 161.936 9.72205 161.685C9.64062 161.433 9.49947 161.206 9.31075 161.022L0.492327 152.411C0.275134 152.199 0.121525 151.931 0.0488354 151.636C-0.023854 151.341 -0.0127052 151.031 0.0810215 150.742C0.174748 150.453 0.347312 150.196 0.579201 150.001C0.811091 149.805 1.09304 149.678 1.39319 149.634L13.58 147.86C13.8408 147.822 14.0884 147.721 14.3016 147.566C14.5148 147.411 14.6872 147.206 14.8038 146.969L20.2538 135.908C20.3881 135.635 20.5958 135.406 20.8534 135.245C21.111 135.085 21.4082 135 21.7115 135C22.0148 135 22.3121 135.085 22.5697 135.245C22.8273 135.406 23.035 135.635 23.1692 135.908Z" fill="url(#paint13_linear_443_1607)"/>
<path d="M34.1254 174.94C34.0196 174.939 33.9156 174.912 33.8226 174.862L22.9224 169.121C22.5492 168.925 22.1338 168.822 21.7121 168.822C21.2905 168.822 20.8751 168.925 20.5019 169.121L9.60169 174.862C9.50868 174.912 9.40473 174.939 9.29892 174.94C9.20275 174.939 9.10804 174.916 9.02125 174.875C8.93447 174.833 8.85767 174.773 8.79606 174.7C8.73527 174.628 8.69134 174.544 8.66752 174.453C8.64371 174.362 8.64062 174.267 8.65851 174.175L10.7404 162.017C10.8117 161.601 10.7808 161.173 10.6505 160.772C10.5202 160.37 10.2943 160.006 9.99229 159.711L1.17391 151.101C1.08703 151.016 1.02557 150.908 0.996495 150.791C0.967415 150.673 0.971866 150.549 1.00935 150.433C1.04683 150.318 1.11585 150.215 1.20859 150.137C1.30134 150.058 1.41411 150.008 1.53415 149.99L13.7208 148.216C14.1381 148.156 14.5345 147.994 14.8756 147.746C15.2168 147.497 15.4925 147.17 15.6791 146.791L21.1293 135.729C21.183 135.62 21.266 135.528 21.369 135.464C21.472 135.4 21.5909 135.366 21.7121 135.366C21.8334 135.366 21.9523 135.4 22.0553 135.464C22.1583 135.528 22.2414 135.62 22.2951 135.729L27.7452 146.791C27.9318 147.17 28.2075 147.497 28.5487 147.746C28.8899 147.994 29.2862 148.156 29.7035 148.216L41.8902 149.99C42.0103 150.008 42.123 150.058 42.2157 150.137C42.3085 150.215 42.3775 150.318 42.415 150.433C42.4525 150.549 42.4569 150.673 42.4279 150.791C42.3988 150.908 42.3373 151.016 42.2505 151.101L33.432 159.711C33.1301 160.006 32.9042 160.37 32.7739 160.772C32.6436 161.173 32.6127 161.601 32.6839 162.017L34.7658 174.175C34.7837 174.267 34.7806 174.362 34.7568 174.453C34.733 174.544 34.689 174.628 34.6283 174.7C34.5667 174.773 34.4898 174.833 34.403 174.875C34.3163 174.916 34.2216 174.939 34.1254 174.94Z" fill="url(#paint14_linear_443_1607)"/>
<g style="mix-blend-mode:multiply">
<path d="M42.9309 152.411C43.1481 152.199 43.3017 151.93 43.3744 151.635C43.4471 151.34 43.436 151.031 43.3422 150.742C43.2485 150.453 43.076 150.196 42.8441 150C42.6122 149.804 42.3302 149.677 42.0301 149.634L31.5845 148.113C30.555 153.355 27.7474 158.079 23.6379 161.484C19.5283 164.889 14.3697 166.765 9.03656 166.795L7.69675 174.621C7.64547 174.92 7.67882 175.228 7.7931 175.509C7.90737 175.791 8.09798 176.035 8.34336 176.213C8.58874 176.392 8.87912 176.498 9.18164 176.52C9.48416 176.542 9.78674 176.479 10.0552 176.337L20.9553 170.597C21.1886 170.474 21.4482 170.41 21.7117 170.41C21.9753 170.41 22.2349 170.474 22.4682 170.597L33.3682 176.337C33.6367 176.479 33.9393 176.542 34.2418 176.52C34.5443 176.498 34.8347 176.392 35.0801 176.213C35.3254 176.035 35.5161 175.791 35.6303 175.509C35.7446 175.228 35.778 174.92 35.7267 174.621L33.6451 162.463C33.6005 162.202 33.6198 161.935 33.7012 161.684C33.7826 161.433 33.9238 161.206 34.1125 161.021L42.9309 152.411Z" fill="#FFF1D2"/>
</g>
<path d="M43.4236 151.292H43.4228C43.4348 150.892 43.2994 150.503 43.0425 150.197C42.7856 149.891 42.4252 149.69 42.0301 149.634L29.8434 147.86C29.5826 147.822 29.3349 147.721 29.1217 147.566C28.9085 147.411 28.7361 147.206 28.6195 146.969L23.1695 135.908C23.0352 135.635 22.8276 135.406 22.57 135.245C22.3124 135.085 22.0151 135 21.7118 135C21.4085 135 21.1112 135.085 20.8536 135.245C20.596 135.406 20.3884 135.635 20.2541 135.908L14.8041 146.969C14.6875 147.206 14.5151 147.411 14.3019 147.566C14.0887 147.721 13.841 147.822 13.5802 147.86L1.39347 149.634C0.99842 149.69 0.638002 149.891 0.381092 150.197C0.124181 150.503 -0.0112134 150.892 0.000809934 151.292H0V154.628H0.00390881C-0.0108031 154.86 0.02532 155.093 0.109728 155.31C0.194137 155.526 0.32482 155.722 0.492616 155.883L9.311 164.494C9.34712 164.529 9.37944 164.567 9.41175 164.605L7.6968 174.621C7.60795 175.14 7.67916 178.536 7.68377 178.574C7.70199 178.725 7.74161 178.872 7.80146 179.011C7.81608 179.045 7.83189 179.078 7.8489 179.111C7.93293 179.273 8.04358 179.421 8.17625 179.546C8.25528 179.621 8.34139 179.688 8.43335 179.747C8.68188 179.905 8.96861 179.992 9.2629 180C9.34433 180.001 9.42576 179.997 9.50648 179.986C9.60717 179.972 9.70637 179.949 9.8027 179.917C9.8267 179.909 9.85059 179.9 9.87436 179.891C9.91683 179.874 9.95912 179.856 10.0013 179.835C10.0193 179.827 10.0374 179.819 10.0553 179.809L20.9554 174.069C21.1886 173.946 21.4482 173.882 21.7118 173.882C21.9754 173.882 22.235 173.946 22.4682 174.069L33.3683 179.809C33.3862 179.819 33.4043 179.827 33.4223 179.835C33.5836 179.914 33.7569 179.966 33.9351 179.988C34.0836 180.006 34.234 180.003 34.3817 179.979C34.7091 179.925 35.0125 179.772 35.2517 179.542C35.491 179.312 35.6549 179.014 35.7218 178.688C35.7366 178.612 35.7459 178.535 35.7496 178.458C35.7534 178.379 35.8156 175.14 35.7268 174.621L34.0113 164.602C34.0432 164.564 34.0769 164.528 34.1126 164.494L42.931 155.883C43.0987 155.722 43.2293 155.526 43.3137 155.31C43.3981 155.093 43.4342 154.86 43.4195 154.628H43.4236V151.292Z" fill="url(#paint15_linear_443_1607)"/>
<path d="M23.1692 135.908L28.6193 146.969C28.7359 147.206 28.9082 147.411 29.1214 147.566C29.3346 147.721 29.5822 147.822 29.843 147.86L42.0299 149.634C42.33 149.678 42.612 149.805 42.8439 150.001C43.0758 150.196 43.2483 150.453 43.342 150.742C43.4358 151.031 43.4469 151.341 43.3742 151.636C43.3015 151.931 43.1479 152.199 42.9307 152.411L34.1123 161.022C33.9236 161.206 33.7824 161.433 33.701 161.685C33.6196 161.936 33.6003 162.203 33.6449 162.463L35.7265 174.621C35.7778 174.92 35.7444 175.228 35.6301 175.51C35.5159 175.791 35.3252 176.035 35.0799 176.214C34.8345 176.392 34.5441 176.498 34.2416 176.52C33.9391 176.542 33.6365 176.479 33.368 176.338L22.468 170.597C22.2347 170.474 21.9751 170.41 21.7115 170.41C21.448 170.41 21.1884 170.474 20.9551 170.597L10.055 176.338C9.78654 176.479 9.48396 176.542 9.18144 176.52C8.87892 176.498 8.58854 176.392 8.34316 176.214C8.09778 176.035 7.90717 175.791 7.7929 175.51C7.67863 175.228 7.64527 174.92 7.69655 174.621L9.77819 162.463C9.82275 162.203 9.80349 161.936 9.72205 161.685C9.64062 161.433 9.49947 161.206 9.31075 161.022L0.492327 152.411C0.275134 152.199 0.121525 151.931 0.0488354 151.636C-0.023854 151.341 -0.0127052 151.031 0.0810215 150.742C0.174748 150.453 0.347312 150.196 0.579201 150.001C0.811091 149.805 1.09304 149.678 1.39319 149.634L13.58 147.86C13.8408 147.822 14.0884 147.721 14.3016 147.566C14.5148 147.411 14.6872 147.206 14.8038 146.969L20.2538 135.908C20.3881 135.635 20.5958 135.406 20.8534 135.245C21.111 135.085 21.4082 135 21.7115 135C22.0148 135 22.3121 135.085 22.5697 135.245C22.8273 135.406 23.035 135.635 23.1692 135.908Z" fill="url(#paint16_linear_443_1607)"/>
<path d="M34.1254 174.94C34.0196 174.939 33.9156 174.912 33.8226 174.862L22.9224 169.121C22.5492 168.925 22.1338 168.822 21.7121 168.822C21.2905 168.822 20.8751 168.925 20.5019 169.121L9.60169 174.862C9.50868 174.912 9.40473 174.939 9.29892 174.94C9.20275 174.939 9.10804 174.916 9.02125 174.875C8.93447 174.833 8.85767 174.773 8.79606 174.7C8.73527 174.628 8.69134 174.544 8.66752 174.453C8.64371 174.362 8.64062 174.267 8.65851 174.175L10.7404 162.017C10.8117 161.601 10.7808 161.173 10.6505 160.772C10.5202 160.37 10.2943 160.006 9.99229 159.711L1.17391 151.101C1.08703 151.016 1.02557 150.908 0.996495 150.791C0.967415 150.673 0.971866 150.549 1.00935 150.433C1.04683 150.318 1.11585 150.215 1.20859 150.137C1.30134 150.058 1.41411 150.008 1.53415 149.99L13.7208 148.216C14.1381 148.156 14.5345 147.994 14.8756 147.746C15.2168 147.497 15.4925 147.17 15.6791 146.791L21.1293 135.729C21.183 135.62 21.266 135.528 21.369 135.464C21.472 135.4 21.5909 135.366 21.7121 135.366C21.8334 135.366 21.9523 135.4 22.0553 135.464C22.1583 135.528 22.2414 135.62 22.2951 135.729L27.7452 146.791C27.9318 147.17 28.2075 147.497 28.5487 147.746C28.8899 147.994 29.2862 148.156 29.7035 148.216L41.8902 149.99C42.0103 150.008 42.123 150.058 42.2157 150.137C42.3085 150.215 42.3775 150.318 42.415 150.433C42.4525 150.549 42.4569 150.673 42.4279 150.791C42.3988 150.908 42.3373 151.016 42.2505 151.101L33.432 159.711C33.1301 160.006 32.9042 160.37 32.7739 160.772C32.6436 161.173 32.6127 161.601 32.6839 162.017L34.7658 174.175C34.7837 174.267 34.7806 174.362 34.7568 174.453C34.733 174.544 34.689 174.628 34.6283 174.7C34.5667 174.773 34.4898 174.833 34.403 174.875C34.3163 174.916 34.2216 174.939 34.1254 174.94Z" fill="url(#paint17_linear_443_1607)"/>
<g style="mix-blend-mode:multiply">
<path d="M42.9309 152.411C43.1481 152.199 43.3017 151.93 43.3744 151.635C43.4471 151.34 43.436 151.031 43.3422 150.742C43.2485 150.453 43.076 150.196 42.8441 150C42.6122 149.804 42.3302 149.677 42.0301 149.634L31.5845 148.113C30.555 153.355 27.7474 158.079 23.6379 161.484C19.5283 164.889 14.3697 166.765 9.03656 166.795L7.69675 174.621C7.64547 174.92 7.67882 175.228 7.7931 175.509C7.90737 175.791 8.09798 176.035 8.34336 176.213C8.58874 176.392 8.87912 176.498 9.18164 176.52C9.48416 176.542 9.78674 176.479 10.0552 176.337L20.9553 170.597C21.1886 170.474 21.4482 170.41 21.7117 170.41C21.9753 170.41 22.2349 170.474 22.4682 170.597L33.3682 176.337C33.6367 176.479 33.9393 176.542 34.2418 176.52C34.5443 176.498 34.8347 176.392 35.0801 176.213C35.3254 176.035 35.5161 175.791 35.6303 175.509C35.7446 175.228 35.778 174.92 35.7267 174.621L33.6451 162.463C33.6005 162.202 33.6198 161.935 33.7012 161.684C33.7826 161.433 33.9238 161.206 34.1125 161.021L42.9309 152.411Z" fill="#FFF1D2"/>
</g>
<defs>
<linearGradient id="paint0_linear_443_1607" x1="157.186" y1="39.5648" x2="285.758" y2="167.918" gradientUnits="userSpaceOnUse">
<stop stop-color="#FFA900"/>
<stop offset="1" stop-color="#B44005"/>
</linearGradient>
<linearGradient id="paint1_linear_443_1607" x1="221.363" y1="166.113" x2="221.363" y2="0" gradientUnits="userSpaceOnUse">
<stop stop-color="#FFD700"/>
<stop offset="1" stop-color="#FFA900"/>
</linearGradient>
<linearGradient id="paint2_linear_443_1607" x1="221.363" y1="159.761" x2="221.363" y2="1.46582" gradientUnits="userSpaceOnUse">
<stop stop-color="#FFA900"/>
<stop offset="1" stop-color="#FFD700"/>
</linearGradient>
<linearGradient id="paint3_linear_443_1607" x1="63.5927" y1="109.782" x2="127.878" y2="173.959" gradientUnits="userSpaceOnUse">
<stop stop-color="#FFA900"/>
<stop offset="1" stop-color="#B44005"/>
</linearGradient>
<linearGradient id="paint4_linear_443_1607" x1="95.6803" y1="173.056" x2="95.6803" y2="90" gradientUnits="userSpaceOnUse">
<stop stop-color="#FFD700"/>
<stop offset="1" stop-color="#FFA900"/>
</linearGradient>
<linearGradient id="paint5_linear_443_1607" x1="95.6805" y1="169.881" x2="95.6805" y2="90.7334" gradientUnits="userSpaceOnUse">
<stop stop-color="#FFA900"/>
<stop offset="1" stop-color="#FFD700"/>
</linearGradient>
<linearGradient id="paint6_linear_443_1607" x1="313.499" y1="109.782" x2="377.785" y2="173.959" gradientUnits="userSpaceOnUse">
<stop stop-color="#FFA900"/>
<stop offset="1" stop-color="#B44005"/>
</linearGradient>
<linearGradient id="paint7_linear_443_1607" x1="345.587" y1="173.056" x2="345.587" y2="90" gradientUnits="userSpaceOnUse">
<stop stop-color="#FFD700"/>
<stop offset="1" stop-color="#FFA900"/>
</linearGradient>
<linearGradient id="paint8_linear_443_1607" x1="345.587" y1="169.881" x2="345.587" y2="90.7335" gradientUnits="userSpaceOnUse">
<stop stop-color="#FFA900"/>
<stop offset="1" stop-color="#FFD700"/>
</linearGradient>
<linearGradient id="paint9_linear_443_1607" x1="406.244" y1="144.891" x2="438.387" y2="176.98" gradientUnits="userSpaceOnUse">
<stop stop-color="#FFA900"/>
<stop offset="1" stop-color="#B44005"/>
</linearGradient>
<linearGradient id="paint10_linear_443_1607" x1="422.289" y1="176.528" x2="422.289" y2="135" gradientUnits="userSpaceOnUse">
<stop stop-color="#FFD700"/>
<stop offset="1" stop-color="#FFA900"/>
</linearGradient>
<linearGradient id="paint11_linear_443_1607" x1="422.289" y1="174.94" x2="422.289" y2="135.366" gradientUnits="userSpaceOnUse">
<stop stop-color="#FFA900"/>
<stop offset="1" stop-color="#FFD700"/>
</linearGradient>
<linearGradient id="paint12_linear_443_1607" x1="5.66756" y1="144.891" x2="37.8104" y2="176.98" gradientUnits="userSpaceOnUse">
<stop stop-color="#FFA900"/>
<stop offset="1" stop-color="#B44005"/>
</linearGradient>
<linearGradient id="paint13_linear_443_1607" x1="21.7115" y1="176.528" x2="21.7115" y2="135" gradientUnits="userSpaceOnUse">
<stop stop-color="#FFD700"/>
<stop offset="1" stop-color="#FFA900"/>
</linearGradient>
<linearGradient id="paint14_linear_443_1607" x1="21.7122" y1="174.94" x2="21.7122" y2="135.366" gradientUnits="userSpaceOnUse">
<stop stop-color="#FFA900"/>
<stop offset="1" stop-color="#FFD700"/>
</linearGradient>
<linearGradient id="paint15_linear_443_1607" x1="5.66756" y1="144.891" x2="37.8104" y2="176.98" gradientUnits="userSpaceOnUse">
<stop stop-color="#FFA900"/>
<stop offset="1" stop-color="#B44005"/>
</linearGradient>
<linearGradient id="paint16_linear_443_1607" x1="21.7115" y1="176.528" x2="21.7115" y2="135" gradientUnits="userSpaceOnUse">
<stop stop-color="#FFD700"/>
<stop offset="1" stop-color="#FFA900"/>
</linearGradient>
<linearGradient id="paint17_linear_443_1607" x1="21.7122" y1="174.94" x2="21.7122" y2="135.366" gradientUnits="userSpaceOnUse">
<stop stop-color="#FFA900"/>
<stop offset="1" stop-color="#FFD700"/>
</linearGradient>
</defs>
</svg>
