<svg width="38" height="38" viewBox="0 0 38 38" fill="none" xmlns="http://www.w3.org/2000/svg">
<path d="M18.75 0C8.41875 0 0 8.41875 0 18.75C0 29.0813 8.41875 37.5 18.75 37.5C29.0813 37.5 37.5 29.0813 37.5 18.75C37.5 8.41875 29.0813 0 18.75 0ZM26.9063 25.4437C26.6438 25.8937 26.175 26.1375 25.6875 26.1375C25.4437 26.1375 25.2 26.0812 24.975 25.9312L19.1625 22.4625C17.7188 21.6 16.65 19.7062 16.65 18.0375V10.35C16.65 9.58125 17.2875 8.94375 18.0563 8.94375C18.825 8.94375 19.4625 9.58125 19.4625 10.35V18.0375C19.4625 18.7125 20.025 19.7062 20.6062 20.0437L26.4188 23.5125C27.0938 23.9062 27.3188 24.7687 26.9063 25.4437Z" fill="white"/>
</svg>
