<svg width="31" height="30" viewBox="0 0 31 30" fill="none" xmlns="http://www.w3.org/2000/svg">
<path d="M30.1736 28.7859L21.1485 19.7608C23.199 17.4508 24.2688 14.4329 24.1311 11.3472C23.9934 8.26153 22.659 5.35087 20.411 3.23268C18.163 1.11448 15.1782 -0.0445958 12.0898 0.00131354C9.00135 0.0472229 6.05231 1.29451 3.86824 3.47859C1.68416 5.66267 0.436871 8.6117 0.390962 11.7001C0.345053 14.7885 1.50413 17.7733 3.62233 20.0214C5.74052 22.2694 8.65118 23.6038 11.7369 23.7415C14.8225 23.8792 17.8405 22.8093 20.1505 20.7589L29.1756 29.784C29.2396 29.8522 29.3169 29.9065 29.4027 29.9437C29.4885 29.9808 29.5811 30 29.6746 30C29.7681 30 29.8607 29.9808 29.9465 29.9437C30.0323 29.9065 30.1096 29.8522 30.1736 29.784C30.2418 29.72 30.2962 29.6427 30.3333 29.5568C30.3705 29.471 30.3897 29.3785 30.3897 29.285C30.3897 29.1914 30.3705 29.0989 30.3333 29.0131C30.2962 28.9272 30.2418 28.8499 30.1736 28.7859ZM1.87215 11.9049C1.87215 9.84351 2.48341 7.82845 3.62863 6.11451C4.77386 4.40056 6.40161 3.0647 8.30604 2.27586C10.2105 1.48701 12.3061 1.28062 14.3278 1.68276C16.3495 2.08491 18.2066 3.07755 19.6642 4.53514C21.1218 5.99273 22.1144 7.84982 22.5166 9.87156C22.9187 11.8933 22.7123 13.9889 21.9235 15.8933C21.1347 17.7978 19.7988 19.4255 18.0849 20.5707C16.3709 21.716 14.3559 22.3272 12.2945 22.3272C9.53148 22.3234 6.88271 21.2242 4.92895 19.2704C2.9752 17.3167 1.87592 14.6679 1.87215 11.9049Z" fill="#B6B6B6"/>
</svg>
