<svg width="31" height="38" viewBox="0 0 31 38" fill="none" xmlns="http://www.w3.org/2000/svg">
<path fill-rule="evenodd" clip-rule="evenodd" d="M1.23473 27.6958C2.43742 30.1212 4.32722 32.1553 6.21709 34.1113C8.38391 35.8328 10.8971 36.8332 13.5842 37.2576C14.3993 37.4574 15.2074 37.5274 15.9919 37.4862C17.5722 37.5424 19.1924 37.4255 20.8206 37.1624C23.8272 36.2236 26.5761 34.5024 28.2941 32.0771C29.7544 30.0429 30.4416 27.5394 30.7853 25.114C31.043 22.9233 31.1288 20.6545 30.6993 18.4639C30.2699 16.2732 29.4108 14.552 27.8646 12.8308C28.294 14.3173 28.0363 15.882 27.5209 17.3686C27.0903 18.6105 26.4198 19.7433 25.7599 20.858C25.63 21.0775 25.5005 21.2963 25.3733 21.5151C25.2874 18.9333 23.9129 16.5862 22.4526 14.3173C22.1995 13.924 21.9411 13.533 21.683 13.1423C20.4522 11.2795 19.2261 9.42381 18.587 7.35428C17.8139 4.85066 18.0716 1.87768 20.0473 0C16.0959 1.33 12.3161 3.28602 9.56728 6.25899C6.81844 9.23196 5.44397 13.3003 6.30302 17.0557C4.84271 15.5691 4.06959 13.535 4.24137 11.5791C2.26556 13.8479 0.891177 16.508 0.289834 19.3245C-0.31151 22.141 0.0321268 25.114 1.23473 27.6958ZM22.7985 25.917C23.1364 29.1143 22.2775 31.4543 20.6487 32.7816C21.5078 30.9039 20.9065 28.7133 19.8756 26.8356C19.2817 25.7989 18.5453 24.8142 17.8142 23.8365C17.2762 23.1171 16.7411 22.4016 16.2677 21.672C15.151 19.8725 14.292 17.8383 14.8074 15.8042C12.7458 17.2125 11.2854 19.3249 10.6841 21.5937C10.0828 23.8625 10.4264 26.3662 11.5432 28.4786C10.2546 27.618 9.30972 26.2097 9.22379 24.7232C7.84932 26.2097 6.99036 28.1656 7.0762 30.1215C7.07628 33.1728 9.7392 35.911 12.7458 37.0063C13.0256 37.1058 13.3053 37.1893 13.5842 37.2576C14.3732 37.3823 15.1772 37.4572 15.9919 37.4862C21.6955 37.1866 26.1455 31.0066 22.8823 26.0532C22.8823 26.0141 22.8608 25.9945 22.8393 25.9749C22.8219 25.9591 22.8045 25.9432 22.7985 25.917ZM22.7963 25.8967C22.7971 25.9035 22.7978 25.9102 22.7985 25.917C22.7971 25.9108 22.7963 25.9041 22.7963 25.8967Z" fill="url(#paint0_linear_3704_516)"/>
<defs>
<linearGradient id="paint0_linear_3704_516" x1="4.55735" y1="-24.0234" x2="47.8767" y2="-22.5075" gradientUnits="userSpaceOnUse">
<stop stop-color="#6747E7"/>
<stop offset="1" stop-color="#00FFF0"/>
</linearGradient>
</defs>
</svg>
