<svg width="32" height="39" viewBox="0 0 32 39" fill="none" xmlns="http://www.w3.org/2000/svg">
<path fill-rule="evenodd" clip-rule="evenodd" d="M1.35114 28.3699C2.55484 30.7973 4.44624 32.8332 6.33772 34.7908C8.50637 36.5137 11.0217 37.515 13.711 37.9398C14.5268 38.1397 15.3357 38.2098 16.1208 38.1686C17.7024 38.2248 19.324 38.1078 20.9536 37.8445C23.9627 36.9049 26.714 35.1823 28.4335 32.7548C29.895 30.719 30.5828 28.2133 30.9267 25.7859C31.1847 23.5934 31.2706 21.3226 30.8407 19.1301C30.4109 16.9376 29.5511 15.215 28.0036 13.4923C28.4334 14.98 28.1755 16.5461 27.6596 18.0339C27.2286 19.2768 26.5576 20.4106 25.8972 21.5263C25.7671 21.746 25.6375 21.9649 25.5102 22.1839C25.4242 19.5999 24.0486 17.2508 22.587 14.98C22.3337 14.5864 22.0751 14.1951 21.8168 13.8041C20.5849 11.9397 19.3578 10.0824 18.7182 8.01109C17.9444 5.50534 18.2023 2.52985 20.1797 0.650574C16.2249 1.9817 12.4419 3.93938 9.69076 6.91487C6.93958 9.89037 5.56395 13.9622 6.42373 17.7207C4.96218 16.2329 4.1884 14.1971 4.36032 12.2395C2.38284 14.5102 1.00729 17.1726 0.405436 19.9915C-0.196417 22.8104 0.14751 25.7859 1.35114 28.3699ZM22.9332 26.5895C23.2713 29.7896 22.4117 32.1316 20.7816 33.46C21.6414 31.5807 21.0395 29.3882 20.0078 27.5089C19.4135 26.4714 18.6764 25.4858 17.9446 24.5073C17.4062 23.7873 16.8707 23.0711 16.3969 22.3409C15.2792 20.54 14.4195 18.504 14.9353 16.4682C12.8719 17.8776 11.4104 19.9918 10.8085 22.2626C10.2067 24.5333 10.5506 27.0391 11.6683 29.1533C10.3787 28.292 9.43297 26.8825 9.34697 25.3947C7.97134 26.8825 7.11164 28.84 7.19756 30.7976C7.19764 33.8515 9.86282 36.5921 12.872 37.6883C13.152 37.7878 13.4319 37.8714 13.711 37.9398C14.5008 38.0645 15.3055 38.1396 16.1208 38.1686C21.8293 37.8687 26.283 31.6834 23.017 26.7259C23.017 26.6867 22.9955 26.6671 22.974 26.6475C22.9566 26.6317 22.9392 26.6158 22.9332 26.5895ZM22.931 26.5693C22.9317 26.576 22.9325 26.5828 22.9332 26.5895C22.9318 26.5834 22.931 26.5767 22.931 26.5693Z" fill="white"/>
</svg>
